<svg xmlns="http://www.w3.org/2000/svg" width="18.5" height="18.5" viewBox="0 0 18.5 18.5">
  <g id="enquiries" transform="translate(0.25 0.25)">
    <path id="enquiries-2" data-name="enquiries" d="M2.25,18A2.253,2.253,0,0,1,0,15.75V2.25A2.253,2.253,0,0,1,2.25,0h13.5A2.253,2.253,0,0,1,18,2.25v13.5A2.253,2.253,0,0,1,15.75,18ZM1.5,2.25v13.5a.751.751,0,0,0,.75.75h13.5a.751.751,0,0,0,.75-.75V2.25a.751.751,0,0,0-.75-.75H2.25A.751.751,0,0,0,1.5,2.25ZM3.968,14.033a.742.742,0,0,1-.157-.818.866.866,0,0,1,.157-.247.865.865,0,0,1,.248-.158.726.726,0,0,1,.975.4.63.63,0,0,1,.06.285.753.753,0,0,1-1.283.533ZM7.5,14.25a.75.75,0,1,1,0-1.5h6a.75.75,0,0,1,0,1.5ZM3.968,9.532A.789.789,0,0,1,3.75,9a1.133,1.133,0,0,1,.015-.15.476.476,0,0,1,.045-.135.567.567,0,0,1,.067-.135l.09-.113a.866.866,0,0,1,.248-.157.75.75,0,0,1,.57,0,.866.866,0,0,1,.247.157l.09.113a.569.569,0,0,1,.067.135.476.476,0,0,1,.045.135A1.139,1.139,0,0,1,5.25,9a.743.743,0,0,1-.75.75A.789.789,0,0,1,3.968,9.532ZM7.5,9.75a.75.75,0,1,1,0-1.5h6a.75.75,0,0,1,0,1.5ZM3.968,5.033a.774.774,0,0,1-.157-.247.707.707,0,0,1,0-.57.774.774,0,0,1,.157-.247.867.867,0,0,1,.248-.158.717.717,0,0,1,.435-.045.477.477,0,0,1,.135.045.57.57,0,0,1,.135.068l.112.09a.774.774,0,0,1,.158.247.749.749,0,0,1,.06.285.789.789,0,0,1-.218.533l-.112.09a.569.569,0,0,1-.135.067.476.476,0,0,1-.135.045,1.123,1.123,0,0,1-.15.015A.789.789,0,0,1,3.968,5.033ZM7.5,5.25a.75.75,0,1,1,0-1.5h6a.75.75,0,0,1,0,1.5Z" fill="#bbc5d5" stroke="#bbc5d5" stroke-width="0.5"/>
  </g>
</svg>
