<svg xmlns="http://www.w3.org/2000/svg" width="18.7" height="17.705" viewBox="0 0 18.7 17.705">
  <g id="users" transform="translate(0.35 0.35)">
    <path id="users-2" data-name="users" d="M17.151,16.581a3.018,3.018,0,0,0-3.014-3.014H13.5a3.018,3.018,0,0,0-3.014,3.014.425.425,0,0,1-.849,0A3.868,3.868,0,0,1,13.5,12.718h.637A3.868,3.868,0,0,1,18,16.581a.425.425,0,1,1-.849,0Zm-9.637,0A3.018,3.018,0,0,0,4.5,13.567H3.863A3.018,3.018,0,0,0,.849,16.581a.425.425,0,1,1-.849,0,3.868,3.868,0,0,1,3.863-3.863H4.5a3.868,3.868,0,0,1,3.863,3.863.425.425,0,0,1-.849,0ZM10.91,9a2.866,2.866,0,1,1,2.866,2.866A2.869,2.869,0,0,1,10.91,9Zm.849,0a2.017,2.017,0,1,0,2.016-2.017A2.019,2.019,0,0,0,11.759,9ZM1.274,9a2.866,2.866,0,1,1,2.866,2.866A2.869,2.869,0,0,1,1.274,9Zm.849,0A2.017,2.017,0,1,0,4.139,6.986,2.019,2.019,0,0,0,2.123,9Zm9.928-4.6-.168-.167a.306.306,0,0,1-.092-.219.3.3,0,0,1,.092-.217l1.133-1.123-7.346.008L6.8,3.806a.3.3,0,0,1,0,.434l-.168.168a.322.322,0,0,1-.444,0L4.252,2.476a.326.326,0,0,1,0-.452L6.185.092a.322.322,0,0,1,.444,0L6.8.263a.319.319,0,0,1,0,.448L5.7,1.819l7.283-.008-1.1-1.1a.324.324,0,0,1,0-.451l.168-.168a.322.322,0,0,1,.444,0l1.932,1.932a.326.326,0,0,1,0,.452L12.494,4.407a.315.315,0,0,1-.444,0Z" fill="#bbc5d5" stroke="#bbc5d5" stroke-width="0.7"/>
  </g>
</svg>
