<svg xmlns="http://www.w3.org/2000/svg" width="19.138" height="19.001" viewBox="0 0 19.138 19.001">
  <path id="logout" d="M5.808,13.782v1.406A2.816,2.816,0,0,0,8.621,18h7.067A2.816,2.816,0,0,0,18.5,15.188V2.813A2.816,2.816,0,0,0,15.687,0H8.621A2.816,2.816,0,0,0,5.808,2.813V4.219a.7.7,0,0,0,1.406,0V2.813A1.408,1.408,0,0,1,8.621,1.406h7.067a1.408,1.408,0,0,1,1.406,1.406V15.188a1.408,1.408,0,0,1-1.406,1.406H8.621a1.408,1.408,0,0,1-1.406-1.406V13.782a.7.7,0,0,0-1.406,0ZM1.014,7.793,2.589,6.218a.7.7,0,0,1,.994.994l-1.12,1.12h8.443a.7.7,0,1,1,0,1.406H2.463l1.12,1.12a.7.7,0,1,1-.994.994L1.014,10.279A1.76,1.76,0,0,1,1.014,7.793Zm0,0" transform="translate(0.138 0.5)" fill="#bbc5d5" stroke="#bbc5d5" stroke-width="1"/>
</svg>
