<svg xmlns="http://www.w3.org/2000/svg" width="18.5" height="17.48" viewBox="0 0 18.5 17.48">
  <g id="messages" transform="translate(0.25 0.25)">
    <path id="messages-2" data-name="messages" d="M13.781,28.7H8.438a.7.7,0,0,1,0-1.406h5.344a2.816,2.816,0,0,0,2.813-2.812V18.719a2.816,2.816,0,0,0-2.812-2.812H4.219a2.816,2.816,0,0,0-2.812,2.813v5.414a.352.352,0,0,0,.352.352H3.867a.7.7,0,0,1,0,1.406H1.758A1.76,1.76,0,0,1,0,24.133V18.719A4.224,4.224,0,0,1,4.219,14.5h9.563A4.224,4.224,0,0,1,18,18.719v5.766A4.224,4.224,0,0,1,13.781,28.7ZM6.328,28a.7.7,0,0,0-.7-.7H.7A.7.7,0,0,0,.7,28.7H5.625A.7.7,0,0,0,6.328,28Zm2.109,2.778a.7.7,0,0,0-.7-.7H.7a.7.7,0,0,0,0,1.406H7.734A.7.7,0,0,0,8.438,30.777Zm3.137-7.93,3.405-2.584a.7.7,0,0,0-.85-1.12l-3.406,2.585a2.819,2.819,0,0,1-3.409,0l-3.3-2.548a.7.7,0,1,0-.86,1.113l3.3,2.549,0,0a4.228,4.228,0,0,0,5.116,0Z" transform="translate(0 -14.5)" fill="#bbc5d5" stroke="#bbc5d5" stroke-width="0.5"/>
  </g>
</svg>
