<svg xmlns="http://www.w3.org/2000/svg" width="16.754" height="18.5" viewBox="0 0 16.754 18.5">
  <g id="settings" transform="translate(0.255 0.25)">
    <path id="settings-2" data-name="settings" d="M6.012,15.89v-.017a.6.6,0,0,0-.386-.564A6.779,6.779,0,0,1,3.842,14.27a.61.61,0,0,0-.686-.061l0,0a2.118,2.118,0,0,1-2.877-.8,2.1,2.1,0,0,1,.8-2.873l.009-.005a.6.6,0,0,0,.3-.6A6.873,6.873,0,0,1,1.391,8a.61.61,0,0,0-.307-.611l-.011-.007a2.1,2.1,0,0,1-.8-2.871,2.119,2.119,0,0,1,2.877-.8l.042.024a.612.612,0,0,0,.685-.06A6.758,6.758,0,0,1,5.623,2.675a.606.606,0,0,0,.389-.565,2.11,2.11,0,1,1,4.219,0v.013a.606.606,0,0,0,.386.564,6.786,6.786,0,0,1,1.724,1,.609.609,0,0,0,.686.062l.062-.035a2.119,2.119,0,0,1,2.879.8,2.106,2.106,0,0,1-.8,2.873l-.049.027a.6.6,0,0,0-.3.6,6.819,6.819,0,0,1,.07.977,6.95,6.95,0,0,1-.063.929.6.6,0,0,0,.3.6l.043.024a2.106,2.106,0,0,1,.8,2.872,2.119,2.119,0,0,1-2.877.8l-.025-.014a.611.611,0,0,0-.689.065A6.791,6.791,0,0,1,10.616,15.3a.6.6,0,0,0-.384.563v.031a2.11,2.11,0,1,1-4.219,0ZM4.726,13.177A5.369,5.369,0,0,0,6.14,14a2,2,0,0,1,1.279,1.873v.017a.7.7,0,1,0,1.406,0v-.031a2,2,0,0,1,1.27-1.869,5.349,5.349,0,0,0,1.4-.82,2.009,2.009,0,0,1,2.27-.2l.023.014a.71.71,0,0,0,.962-.266.7.7,0,0,0-.266-.954h0l-.044-.024a2,2,0,0,1-1-2.013,5.606,5.606,0,0,0,.05-.738,5.448,5.448,0,0,0-.056-.776,2.015,2.015,0,0,1,1-2.023l.05-.029a.7.7,0,0,0,.269-.955.71.71,0,0,0-.964-.266l-.059.034a2.011,2.011,0,0,1-2.26-.187,5.36,5.36,0,0,0-1.366-.8,2.006,2.006,0,0,1-1.272-1.87V2.11a.7.7,0,1,0-1.406,0A2,2,0,0,1,6.137,3.983a5.365,5.365,0,0,0-1.382.8A2.011,2.011,0,0,1,2.5,4.965l-.04-.023a.709.709,0,0,0-.961.266.7.7,0,0,0,.266.953l0,0,.011.006a2.024,2.024,0,0,1,1,2.037,5.431,5.431,0,0,0-.057.784,5.514,5.514,0,0,0,.052.752,1.992,1.992,0,0,1-1,2.017l-.012.007a.7.7,0,0,0-.267.954.71.71,0,0,0,.964.266l0,0a2.006,2.006,0,0,1,2.262.192Zm2.8-2.7v0a.153.153,0,0,0-.1-.143,1.751,1.751,0,0,1-.454-.265.155.155,0,0,0-.175-.015h0a.533.533,0,0,1-.263.068.539.539,0,0,1-.469-.271.537.537,0,0,1,.2-.731h0a.155.155,0,0,0,.076-.153,1.787,1.787,0,0,1-.017-.24,1.676,1.676,0,0,1,.019-.251.157.157,0,0,0-.078-.156l0,0a.536.536,0,0,1-.2-.73.539.539,0,0,1,.732-.2l.011.006a.156.156,0,0,0,.175-.015,1.728,1.728,0,0,1,.443-.256.153.153,0,0,0,.1-.143.536.536,0,0,1,1.073,0v0a.154.154,0,0,0,.1.143,1.741,1.741,0,0,1,.438.256.156.156,0,0,0,.175.015l.015-.008a.539.539,0,0,1,.733.2.537.537,0,0,1-.2.731l-.013.006a.154.154,0,0,0-.076.153,1.764,1.764,0,0,1,.018.248,1.711,1.711,0,0,1-.016.236.155.155,0,0,0,.077.153l.011.005a.537.537,0,0,1,.2.731.539.539,0,0,1-.732.2l-.006,0a.156.156,0,0,0-.175.016,1.739,1.739,0,0,1-.448.263.153.153,0,0,0-.1.143v.008a.536.536,0,0,1-1.073,0Z" transform="translate(0)" fill="#bbc5d5" stroke="#bbc5d5" stroke-width="0.5"/>
  </g>
</svg>
