<svg xmlns="http://www.w3.org/2000/svg" width="29" height="18.5" viewBox="0 0 29 18.5">
  <line id="Separator" y2="18" transform="translate(0.5 0.5)" fill="none" stroke="#bbc5d5" stroke-width="1"/>
  <path id="copy" d="M4.74,18.035h6.75a4.224,4.224,0,0,0,4.219-4.219V8.543A4.224,4.224,0,0,0,11.49,4.324H4.74A4.224,4.224,0,0,0,.521,8.543v5.273A4.224,4.224,0,0,0,4.74,18.035Zm6.75-12.3A2.816,2.816,0,0,1,14.3,8.543v5.273a2.816,2.816,0,0,1-2.812,2.812H4.74a2.816,2.816,0,0,1-2.812-2.812V8.543A2.816,2.816,0,0,1,4.74,5.73Zm5.625,5.553V4.219A2.816,2.816,0,0,0,14.3,1.406H7.552a2.817,2.817,0,0,0-2.311,1.21.7.7,0,1,1-1.155-.8A4.223,4.223,0,0,1,7.552,0H14.3a4.224,4.224,0,0,1,4.219,4.219v7.065a.7.7,0,1,1-1.406,0Z" transform="translate(10.479 0)" fill="#bbc5d5"/>
</svg>
