<?xml version="1.0" encoding="utf-8"?>
<!-- Generator: Adobe Illustrator 23.0.2, SVG Export Plug-In . SVG Version: 6.00 Build 0)  -->
<svg version="1.1" id="Camada_1" xmlns="http://www.w3.org/2000/svg" xmlns:xlink="http://www.w3.org/1999/xlink" x="0px" y="0px"
	 viewBox="0 0 119.8 121.9" style="enable-background:new 0 0 119.8 121.9;" xml:space="preserve">
<style type="text/css">
	.st0{fill:#6A1D1F;}
	.st1{fill:#A39B95;}
</style>
<path class="st0" d="M98.3,4.5H64.5c-2.8,0-5.1,2.3-5.1,5.1c0-2.8-2.3-5.1-5.1-5.1H20.5h-3.3v4.3h3.3h0c3,0,5.6,1.9,6.5,4.7L49,73
	H49V52.9c0,0,0.1-1.8-0.6-2.6v-0.3c0,0,0,0,0,0c-0.2-0.2-0.4-0.4-0.5-0.7c-0.1-0.3-0.2-0.5,0-0.8v-0.2c0,0-1.2-0.8-1.6-1.4
	c-0.1-0.1-0.1-0.2-0.1-0.3c0-0.2,0-0.5,0-0.5c0.1-0.1,0.5-0.5,0.5-0.5v-0.1l-0.1-0.1l0,0v0c-0.1-0.1-0.1-0.2-0.1-0.4
	c0-0.1,0-0.3,0.1-0.3l0.1-0.1l0.3-0.3v-0.8l0.4-0.3v-4.7l-0.5-0.6c0,0-0.3,0-0.3-0.3c-0.2-0.2-0.5-0.5-0.6-0.6c0,0,0,0,0,0
	c0,0,0,0,0,0v-0.4l1-1l0.7-0.8V34l0.2-0.3v-2.4l-0.3-0.3v-0.5l0.2-0.2v-0.6l-0.2-0.3l0.5-0.5c0-0.1,0-0.1,0-0.2c0-0.5,0.5-0.9,1-0.9
	c0.6,0,1,0.4,1,0.9c0,0.1,0,0.1,0,0.2h0v0.3l0.4,0.8v0.4l0.3-0.3l0.6,0.2v-0.2l0-0.1l-0.1-0.1l-0.1-0.1l0.8-0.7l0.7,0.2V29L52.5,29
	l-0.2-0.1l-0.1-0.1l0.8-0.7l0.7,0.2v-0.4l0,0l-0.2-0.1l-0.1-0.1l0.8-0.8l0.3,0.1v-2l-0.3-0.3v-0.4l0.3-0.4v-0.8l0.2-0.2
	c0-0.1-0.1-0.2-0.1-0.3c0-0.5,0.5-1,1.1-1c0.6,0,1.1,0.4,1.1,1c0,0.1,0,0.2-0.1,0.3l0.2,0.1v0.5l0,0l0,0v0.3l0.2,0.1v0.5l0,0.3
	l-0.1,0.5l0,0.2h-0.1V26l0.8,0.2v0.2l-0.2,0.1l0,0v1.2l0.9,0.3v-1l-0.1-0.1l0.3-0.4l1.6,0.4V27L60.4,27l-0.2,0.1l0,0v1.2l0.9,0.2
	v-0.9L61,27.5v-0.1l0.4-0.3l1.4,0.4v0.1l-0.1,0.1l-0.2,0.1l-0.1,0V29l0.9,0.2v-0.9l-0.1-0.1V28l0.4-0.3l1.5,0.4v0.1l0,0.1L65,28.5
	l-0.1,0.2v0.9l0.8,0.2v-0.7l-0.1-0.3v-0.1l0.4-0.3l1.4,0.4v0.1l0,0L67.2,29l0,0v1.2l0.8,0.2v-0.8l-0.2-0.2v-0.1l0.4-0.4l0.3,0.1
	v-0.5l-0.1-0.1l0-0.4l0.1-0.2l-0.1-0.6l0.2-0.2c0,0,0.1,0,0.2-0.1c0-0.1,0-0.1,0-0.2c0-0.5,0.5-0.9,1.1-0.9c0.6,0,1.1,0.4,1.1,0.9
	c0,0.1,0,0.2,0,0.2v0l0.3,0.4L71,27.5l-0.1,0.1v0.2l0.4,0.5v0.4l-0.1,0.1L71,29.1l-0.1,0.1v2l0.4,0.6v0.5l1.2,1.3l0.4,1v0.5
	l-0.7,0.5l0,0c0,0,0,0,0,0.1c0,0,0,0.1,0,0.2c0,0,0,0,0,0.1c0,0.1-0.1,0.1-0.2,0.1c0,0.1,0,0.2-0.2,0.2c0,0.1,0,0.2-0.2,0.2h0v4.1
	l0.1,0.1l0.2,0.6l0,0.6c0,0,0.7,1.8,0.8,2c0,0.1,0.1,0.2,0.1,0.3c0,0,0,0,0,0c0,0,0,0.1,0,0.1c0,0.1,0,0.1,0,0.2c0,0.1,0,0.1,0,0.2
	c0,0.6-0.6,0.9-1.3,1.3c-0.1,0.1-0.3,0.3-0.4,0.4c0,0,0,0,0,0c0,0,0,0,0,0v0h0c0.1,0.1,0.1,0.3,0,0.6c0,0,0,0,0,0.1
	c-0.1,0.2-0.3,0.5-0.6,0.8c0,0,0,0,0,0c0,0,0,0,0,0c-0.3,0.4-0.7,1.5-0.7,3.2v22h0l22-59.5c0.9-2.7,3.5-4.7,6.5-4.7h0h3.3V4.5H98.3z
	"/>
<path class="st1" d="M48.4,49.1c-0.2,0-0.3,0.1-0.5,0.2c0,0,0,0,0,0c0.1,0.2,0.3,0.5,0.5,0.7c0.1-0.1,0.2-0.4,0.2-0.6
	c0,0,0-0.1,0-0.1c0,0,0,0,0-0.1C48.6,49.2,48.6,49.2,48.4,49.1"/>
<path class="st1" d="M60.7,49.1C60.7,49.1,60.7,49,60.7,49.1l-1-0.2c0,0,0,0,0,0c0,0,0,0,0,0v2.3c0,0,0,0,0,0l0.9,0.2h0h0
	c0,0,0,0,0,0c0,0,0,0,0,0c-0.1-0.3-0.2-0.6-0.2-0.8C60.4,50,60.5,49.5,60.7,49.1C60.7,49.1,60.7,49.1,60.7,49.1"/>
<path class="st1" d="M65.8,52.4C65.8,52.4,65.8,52.4,65.8,52.4l1.4,0.3c0,0,0,0,0,0c0,0,0,0,0,0c0,0,0,0,0,0v-2.3c0,0,0,0,0,0
	l-1-0.2c0,0,0,0,0,0c0,0,0,0,0,0c0,0.2,0.1,0.3,0.1,0.5C66.3,51.2,66.1,51.8,65.8,52.4C65.8,52.3,65.8,52.4,65.8,52.4"/>
<path class="st1" d="M62.9,43.6l-0.4,0.6c0,0,0,0,0,0.1c0,0,0,0,0,0l0.3,0.1c0,0,0,0,0,0c0,0,0,0,0,0l0.5-0.2l0.9,0.2c0,0,0,0,0,0
	l0.5-0.3c0,0,0,0,0-0.1c0,0,0,0,0,0L62.9,43.6C63,43.6,62.9,43.6,62.9,43.6"/>
<path class="st1" d="M63.8,43.6C63.8,43.6,63.8,43.6,63.8,43.6c0.1,0,0.1,0,0.1-0.1c0-0.1,0-0.1-0.1-0.1l-0.7-0.1c0,0-0.1,0-0.1,0.1
	c0,0,0,0.1,0.1,0.1L63.8,43.6z"/>
<path class="st1" d="M71.5,45.8c0.7-0.4,1.3-0.7,1.3-1.3c0-0.1,0-0.3,0-0.4c0,0,0-0.1,0-0.1c0,0,0,0,0,0c-0.3-0.1-0.5-0.2-0.8-0.3
	c-0.5-0.2-1.1-0.3-1.6-0.3h0c-0.8,0-1.6,0.2-2.1,0.6c0,0,0,0.1,0,0.1c0.4,0.7,0.9,1.4,1.8,2.1c0,0,0,0,0,0c0,0,0,0,0,0
	c0.1,0,0.3-0.1,0.5-0.1c0.2,0,0.4,0,0.6,0.1c0,0,0,0,0,0c0,0,0,0,0,0c0,0,0,0,0,0c0,0,0,0,0,0C71.2,46.1,71.4,45.9,71.5,45.8"/>
<path class="st1" d="M62.6,51.4L62.6,51.4l-1,0.1c0,0-0.1,0-0.1,0.1c0,0,0,0.1,0.1,0.1l1.3,0.2c0,0,0,0,0,0c0,0,0,0,0.1,0
	c0,0,0-0.1,0-0.1L62.6,51.4C62.6,51.4,62.6,51.4,62.6,51.4"/>
<path class="st1" d="M63.8,51.6C63.8,51.6,63.8,51.6,63.8,51.6C63.8,51.6,63.7,51.6,63.8,51.6l-0.3,0.2c0,0,0,0,0,0.1c0,0,0,0,0,0
	l1.3,0.3c0,0,0,0,0,0c0,0,0,0,0.1,0c0,0,0-0.1,0-0.1L63.8,51.6z"/>
<path class="st1" d="M55.7,44.6c-0.2,0-0.5,0.1-0.6,0.2c0,0,0,0,0,0c0.1,0.2,0.3,0.5,0.5,0.7c0,0,0,0,0,0c0,0,0,0,0,0
	c0.2-0.1,0.5,0,0.5,0c0,0,0,0,0,0c0.2-0.2,0.3-0.4,0.4-0.6c0,0,0,0,0,0C56.3,44.7,56,44.6,55.7,44.6"/>
<path class="st1" d="M47.2,44.6c-0.2,0-0.3,0.2-0.2,0.4c0,0.2,0.2,0.2,0.3,0.2c0,0,0.1,0,0.1,0c0.5-0.1,1.1-0.3,1.9-0.2
	c0.1,0,0.2,0,0.2-0.1l3.7-3c0.1-0.1,0.2-0.3,0.1-0.5c-0.1-0.1-0.3-0.2-0.5-0.1l-3.6,2.9C48.3,44.3,47.7,44.4,47.2,44.6"/>
<path class="st1" d="M55.8,39.2c0,0.1,0.1,0.2,0.2,0.2c0.7,0,1.4,0.2,1.9,0.5c0,0,0.1,0,0.1,0c0.1,0,0.2,0,0.2-0.1
	c0.1-0.1,0-0.3-0.1-0.3c-0.6-0.4-1.4-0.6-2.2-0.6C55.9,38.9,55.8,39,55.8,39.2"/>
<path class="st1" d="M49.7,46.2c-0.3-0.1-0.6-0.1-1-0.1c-1,0-2,0.3-2.4,0.8c0.4,0.6,1.6,1.4,1.6,1.4c0.1-0.1,0.3-0.1,0.5-0.1
	c0.2,0,0.4,0,0.5,0.1C49.3,47.6,49.6,46.8,49.7,46.2"/>
<path class="st1" d="M59.9,37.2c0,0.1,0.1,0.2,0,0.4c0,0,0,0.1,0,0.1l0.3,0.1c0,0,0,0,0,0c0,0,0,0,0.1,0l0.6-0.9l0.4,0.1
	c0,0,0,0,0,0c0,0,0.1,0,0.1-0.1c0,0,0-0.1-0.1-0.1l-3.3-0.9c0,0-0.1,0-0.1,0.1c0,0,0,0.1,0.1,0.1l1,0.3
	C59.5,36.5,59.8,36.8,59.9,37.2"/>
<path class="st1" d="M58.8,35.7C58.8,35.7,58.8,35.7,58.8,35.7L58,35.5c0,0-0.1,0-0.1,0.1c0,0.1,0,0.1,0.1,0.2l3.6,1c0,0,0,0,0,0
	c0.1,0,0.1,0,0.1-0.1c0-0.1,0-0.1-0.1-0.2l-0.8-0.2c0-0.1,0-0.3-0.1-0.5c-0.2-0.6-0.8-1.1-1.4-1.1c-0.5,0-0.7,0.3-0.7,0.7l0.3,0.1
	c0.1,0,0.1,0.1,0.1,0.1C58.9,35.6,58.9,35.7,58.8,35.7"/>
<path class="st1" d="M62.1,36.9c0,0-0.1,0-0.1,0.1c0,0,0,0.1,0.1,0.1l0.7,0.2c0.4,0.2,0.7,0.6,0.8,0.9c0,0.1,0.1,0.2,0,0.4
	c0,0,0,0.1,0,0.1l0.3,0.1c0,0,0,0,0,0c0,0,0,0,0,0l0.6-0.9l0.5,0.1c0,0,0,0,0,0c0,0,0.1,0,0.1-0.1c0,0,0-0.1-0.1-0.1L62.1,36.9z"/>
<path class="st1" d="M62.5,36.7C62.5,36.7,62.5,36.7,62.5,36.7l-0.6-0.2c0,0-0.1,0-0.1,0.1c0,0.1,0,0.1,0.1,0.2l3.3,0.9c0,0,0,0,0,0
	c0.1,0,0.1,0,0.1-0.1c0-0.1,0-0.1-0.1-0.1l-0.8-0.2c0-0.1,0-0.3-0.1-0.5c-0.2-0.6-0.8-1.1-1.4-1.1c-0.5,0-0.7,0.3-0.7,0.7l0.3,0.1
	c0.1,0,0.1,0.1,0.1,0.2C62.6,36.6,62.6,36.7,62.5,36.7"/>
<path class="st1" d="M68.7,38.7l-2.9-0.8c0,0-0.1,0-0.1,0.1c0,0,0,0.1,0.1,0.1l0.7,0.2c0.4,0.2,0.7,0.6,0.8,0.9c0,0.1,0.1,0.2,0,0.4
	c0,0,0,0.1,0,0.1l0.3,0.1c0,0,0,0,0,0c0,0,0,0,0.1,0l0.6-0.9l0.4,0.1c0,0,0,0,0,0c0,0,0.1,0,0.1-0.1C68.8,38.7,68.7,38.7,68.7,38.7"
	/>
<path class="st1" d="M66.2,37.6C66.2,37.6,66.1,37.6,66.2,37.6l-0.5-0.1c0,0-0.1,0-0.1,0.1c0,0.1,0,0.1,0.1,0.2l3.1,0.8c0,0,0,0,0,0
	c0.1,0,0.1,0,0.1-0.1c0-0.1,0-0.1-0.1-0.1l-0.7-0.2c0-0.1,0-0.3-0.1-0.5c-0.2-0.6-0.8-1.1-1.4-1.1c-0.5,0-0.7,0.3-0.7,0.7l0.3,0.1
	c0.1,0,0.1,0.1,0.1,0.1C66.3,37.6,66.2,37.6,66.2,37.6"/>
<path class="st1" d="M68.3,42.9c0,0,0.1,0,0.1,0c0.3-0.2,0.7-0.3,1.1-0.3c0.2,0,0.3-0.1,0.3-0.3c0-0.2-0.1-0.3-0.3-0.3
	c-0.5,0-0.9,0.1-1.3,0.3l-9.2-2c0,0,0,0-0.1,0c-0.1,0-0.2,0.1-0.3,0.2c0,0.1,0.1,0.3,0.2,0.3L68.3,42.9
	C68.3,42.9,68.3,42.9,68.3,42.9"/>
<path class="st1" d="M46.5,37.5c0,0.2,0.3,0.3,0.3,0.3l0.5,0.6v0.2c0,0,0,0,0,0l0.6-0.6l1.3,0c0,0,0,0,0,0l4.6-4.1c0,0,0,0,0,0v-1.1
	l0.8-0.7l1.3-0.1l1.3,0.3l0.3,0.6c0,0,0,0,0,0L68.6,36h0l1.6-0.1l1.1,0.3l0.2,0.3h0c0.1,0,0.2-0.1,0.2-0.2c0.1,0,0.2-0.2,0.2-0.2
	c0.1,0,0.2-0.1,0.2-0.1c0,0,0,0,0-0.1l-0.3-0.6c0,0,0,0,0,0l-1.6-0.4c0,0,0,0,0,0l-1.8,0.1l-9.9-2.6l-0.6-0.8c0,0,0,0,0,0l-1.7-0.5
	c0,0,0,0,0,0h0l-1.8,0.2c0,0,0,0,0,0l-5.5,4.8l-2,0.1c0,0,0,0,0,0l-1,0.8c0,0,0,0,0,0C46,37.1,46.3,37.4,46.5,37.5 M46.8,37.5
	l0.7-0.6c0,0,0,0,0.1,0l1.5-0.1l4.6-3.9c0,0,0.1,0,0.1,0c0,0,0,0.1,0,0.1l-4.6,4c0,0,0,0-0.1,0L47.6,37l-0.7,0.6c0,0,0,0-0.1,0
	c0,0-0.1,0-0.1,0C46.7,37.6,46.7,37.5,46.8,37.5z"/>
<path class="st1" d="M56.1,29.7L56.1,29.7l-2.1,0.2c0,0,0,0,0,0l-1.7,1.6c0,0,0,0,0,0.1c0,0,0,0,0,0l0.9,0.2c0,0,0,0,0,0
	c0,0,0,0,0,0l1.1-1l1.9-0.2l1.8,0.5l0.7,0.9c0,0,0,0,0,0l9.7,2.6c0,0,0,0,0,0h0l1.8-0.1l1.7,0.4l0.3,0.6l0,0l0.7-0.5v-0.2l-0.4-0.8
	c0,0,0,0,0,0l-2-0.5c0,0,0,0,0,0l-2.6,0l-8.4-2.3l-0.8-0.9c0,0,0,0,0,0L56.1,29.7C56.1,29.7,56.1,29.7,56.1,29.7"/>
<path class="st1" d="M50,40l-0.5,0l-0.6,0.5l0.4,0.3l0,0c0,0,0,0,0,0l0.1-0.1c0.1-0.1,0.2-0.1,0.3-0.1c0.2,0,0.5,0.2,0.5,0.4l0,0
	c0,0,0,0,0,0l0.1-0.1l0.1-1.1c0,0,0,0,0,0l0.6-0.5c0.1-0.1,0.2-0.1,0.3-0.1c0.2,0,0.5,0.2,0.5,0.4l0,0l0.1-0.1l0.1-1.1c0,0,0,0,0,0
	l0.6-0.5c0.3-0.2,0.7,0,0.8,0.3c0,0,0,0,0,0l0.1-0.1l0-0.1v-2.4c-0.1,0-0.1,0-0.2,0c-0.3,0.1-0.5,0.5-0.5,0.9c0,0.2,0,0.3,0,0.4
	l0.3,0.2c0,0,0,0.1,0,0.1c0,0,0,0.1-0.1,0.1l-0.5,0l-0.6,0.5c0,0,0,0,0,0l-0.3,0.2c0,0-0.1,0-0.1,0c0,0,0,0,0-0.1c0,0,0,0,0-0.1
	l0.4-0.4c-0.1-0.3-0.2-0.4-0.4-0.4c-0.3,0.1-0.5,0.5-0.5,0.9c0,0.2,0,0.3,0,0.4l0.3,0.2c0,0,0,0.1,0,0.1c0,0,0,0.1-0.1,0.1l-0.5,0
	l-0.5,0.5c0,0,0,0,0,0l-0.3,0.3c0,0-0.1,0-0.1,0c0,0,0,0,0-0.1c0,0,0,0,0,0c0,0,0,0,0,0l0.4-0.4c-0.1-0.3-0.2-0.4-0.4-0.4
	c-0.3,0.1-0.5,0.5-0.5,0.9c0,0.2,0,0.3,0,0.4l0.3,0.2C50,39.9,50.1,39.9,50,40C50,40,50,40,50,40"/>
<path class="st1" d="M56.7,44.2c0.5-0.4,1.7-1.3,1.9-2.5c0,0,0,0,0-0.1c-0.5-0.4-1.5-0.8-2.6-0.8c-0.8,0-1.8,0.2-2.6,1.2
	c0,0,0,0,0,0.1c0.2,0.6,0.7,1.6,1.5,2.2c0,0,0,0,0,0c0,0,0,0,0,0c0.1-0.1,0.4-0.2,0.7-0.2c0.3,0,0.6,0.1,0.8,0.3c0,0,0,0,0,0
	c0,0,0,0,0,0C56.6,44.3,56.7,44.3,56.7,44.2"/>
<path class="st1" d="M53.9,47.9L53,47.7L52.7,48c0,0,0,0-0.1,0c0,0,0,0,0-0.1v0c0-0.8-0.1-1.4-0.4-1.7c-0.2-0.2-0.4-0.3-0.7-0.2
	c0,0.2-0.1,0.3-0.1,0.4c-0.1,0.1-0.2,0.2-0.3,0.2c0,0,0,0,0,0l-0.2-0.1c-0.4,0.6-0.7,1.6-0.7,2.5c0,0.2,0,0.4,0,0.5l0.5-0.1
	c0.1,0,0.2,0.1,0.2,0.2c0,0.1-0.1,0.2-0.2,0.2h-0.5c0,0,0,0,0,0l-0.9,0.7l0,0.1l0,0l1,0.6l0.1,0c0,0,0,0,0,0c0,0,0.2-0.1,0.4-0.1
	c0.3,0,0.7,0.2,1,0.4c0,0.1,0.1,0.1,0.1,0.1c0,0,0,0,0,0c0.2,0.1,0.4,0.1,0.6,0c0.5-0.3,0.7-1.4,0.6-2.4c0,0,0-0.1,0-0.1l0.9-0.7
	L53.9,47.9z"/>
<path class="st1" d="M50.7,51.4C50.7,51.4,50.7,51.4,50.7,51.4l-0.6,0.4c0,0,0,0,0,0l0,2.4c0,0,0,0,0,0c0,0,0,0,0,0c0,0,0,0,0,0
	l0.8-0.6c0,0,0,0,0,0c-0.2-0.4-0.3-0.9-0.3-1.5C50.6,52,50.7,51.7,50.7,51.4C50.7,51.4,50.7,51.4,50.7,51.4"/>
<path class="st1" d="M53.2,52.1C53.2,52.1,53.2,52.1,53.2,52.1C53.2,52.1,53.2,52.1,53.2,52.1l0.4-0.3c0,0,0,0,0,0v-2.4c0,0,0,0,0,0
	c0,0,0,0,0,0l-0.4,0.3c0,0,0,0,0,0c0.1,0.3,0.2,0.8,0.2,1.3C53.3,51.3,53.3,51.7,53.2,52.1C53.2,52.1,53.2,52.1,53.2,52.1"/>
<path class="st1" d="M51.9,52.8C51.9,52.8,51.9,52.8,51.9,52.8l-0.4,0.4c0,0,0,0,0,0c0,0,0,0,0,0c0,0,0,0,0,0L52,53c0,0,0,0,0,0
	c0,0,0,0,0,0L51.9,52.8C51.9,52.8,51.9,52.8,51.9,52.8"/>
<path class="st1" d="M52.2,52.5C52.2,52.6,52.2,52.6,52.2,52.5l0.1,0.2c0,0,0,0,0,0h0c0,0,0,0,0,0l0.4-0.3c0,0,0,0,0,0c0,0,0,0,0,0
	L52.2,52.5C52.2,52.5,52.2,52.5,52.2,52.5"/>
<path class="st1" d="M51.2,44.9C51.2,44.9,51.2,44.9,51.2,44.9l-0.8,0.6c0,0,0,0,0,0c0,0,0,0,0,0l0.4,0.2c0,0,0,0,0,0c0,0,0,0,0,0
	l0.5-0.4l0.5,0.1c0,0,0,0,0,0c0,0,0,0,0,0l0.5-0.2c0,0,0,0,0-0.1c0,0,0,0,0-0.1L51.2,44.9C51.2,44.9,51.2,44.9,51.2,44.9"/>
<path class="st1" d="M52.1,45C52.1,45,52.1,45,52.1,45c0.1-0.1,0.2-0.3,0.1-0.4c0-0.1-0.2-0.2-0.3-0.2c-0.1,0-0.2,0-0.3,0.1
	c-0.1,0-0.2,0.1-0.2,0.2c0,0,0,0,0,0.1c0,0,0,0,0,0L52.1,45C52.1,45,52.1,45,52.1,45"/>
<path class="st1" d="M50.1,31.1C50.1,31.1,50.1,31.1,50.1,31.1l0.7-0.6l0.5,0.2c0,0,0.1,0,0.1-0.1c0,0,0-0.1-0.1-0.1l-0.6-0.2
	c0,0-0.1,0-0.1,0L50,31C50,31,50,31.1,50.1,31.1C50,31.1,50,31.1,50.1,31.1"/>
<path class="st1" d="M51.9,29.5l0.6,0.2c0,0,0.1,0,0.1-0.1c0,0,0-0.1-0.1-0.1l-0.7-0.2c0,0-0.1,0-0.1,0l-0.6,0.6l0.1,0.1L51.9,29.5z
	"/>
<path class="st1" d="M53.1,28.4l0.5,0.1c0,0,0.1,0,0.1-0.1c0,0,0-0.1-0.1-0.1l-0.5-0.1c0,0-0.1,0-0.1,0l-0.7,0.6l0.1,0.1L53.1,28.4z
	"/>
<path class="st1" d="M54.4,27.3l0.3,0.1c0,0,0.1,0,0.1-0.1c0-0.1,0-0.1-0.1-0.1l-0.4-0.1c0,0-0.1,0-0.1,0l-0.7,0.6l0.1,0.1
	L54.4,27.3z"/>
<polygon class="st1" points="57.1,26.3 57.7,26.5 57.9,26.4 57.9,26.4 57.1,26.2 "/>
<path class="st1" d="M58.8,27l0.1-0.1l1.2,0.3l0.2-0.1l-1.4-0.4c0,0-0.1,0-0.1,0l-0.2,0.2c0,0,0,0.1,0,0.1C58.8,27,58.8,27,58.8,27"
	/>
<path class="st1" d="M61.2,27.6l0.2-0.1l1.1,0.3l0.2-0.1l-1.3-0.4c0,0-0.1,0-0.1,0l-0.2,0.2c0,0-0.1,0.1,0,0.1
	C61.1,27.6,61.2,27.7,61.2,27.6"/>
<path class="st1" d="M63.6,28.2l0.2-0.1l1.3,0.4l0.1-0.2l-1.4-0.4c0,0-0.1,0-0.1,0l-0.2,0.2c0,0,0,0.1,0,0.1
	C63.5,28.3,63.5,28.3,63.6,28.2"/>
<path class="st1" d="M65.9,28.9l0.2-0.1l1.1,0.3l0.2-0.1l-1.3-0.3c0,0-0.1,0-0.1,0l-0.2,0.2c0,0-0.1,0.1,0,0.1
	C65.8,28.9,65.8,28.9,65.9,28.9"/>
<path class="st1" d="M68.1,29.4l0.1-0.1l0.2,0.1v-0.2l-0.2-0.1c0,0-0.1,0-0.1,0L68,29.3c0,0,0,0.1,0,0.1
	C68,29.5,68.1,29.5,68.1,29.4"/>
<path class="st1" d="M70.9,28.5l-0.9-0.3c0,0,0,0-0.1,0l-1.1,0.3c-0.1,0-0.1,0.1-0.1,0.1c0,0.1,0.1,0.1,0.1,0.1l1.1-0.3l0.9,0.3
	l0.2,0.4l0.2-0.2L70.9,28.5C70.9,28.6,70.9,28.5,70.9,28.5"/>
<path class="st1" d="M68.6,27.3l1.1-0.3l0.9,0.3l0.3,0.4v-0.1l0.1-0.1l-0.2-0.3c0,0,0,0-0.1-0.1l-0.9-0.3c0,0,0,0-0.1,0l-1.1,0.3
	c-0.1,0-0.1,0.1-0.1,0.2C68.5,27.3,68.6,27.3,68.6,27.3"/>
<path class="st1" d="M54.8,24.7l0.3-0.3l0.8,0l1,0.3l0.2,0.4l0.1-0.5l-0.1-0.1c0,0-0.1-0.1-0.1-0.1L56,24.1c0,0,0,0,0,0l-0.9,0
	c0,0-0.1,0-0.1,0l-0.4,0.3c-0.1,0.1-0.1,0.2,0,0.2C54.7,24.8,54.8,24.8,54.8,24.7"/>
<path class="st1" d="M55,23.4l0.3-0.3l0.8,0l1,0.3l0.1,0.1l0,0v-0.4l-1.1-0.3c0,0,0,0,0,0l-0.9,0c0,0-0.1,0-0.1,0l-0.4,0.3
	c-0.1,0.1-0.1,0.2,0,0.2C54.8,23.5,54.9,23.5,55,23.4"/>
<path class="st1" d="M47.8,29.6c0,0,0.1,0,0.1,0l0.2-0.2l1.6,0c0.1,0,0.2-0.1,0.2-0.2c0-0.1-0.1-0.2-0.2-0.2l-1.7,0h0
	c0,0-0.1,0-0.1,0l-0.3,0.3c-0.1,0.1-0.1,0.2,0,0.2C47.8,29.6,47.8,29.6,47.8,29.6"/>
<path class="st1" d="M47.8,31.1c0,0,0.1,0,0.1,0l0.2-0.2l1.6,0h0c0.1,0,0.2-0.1,0.2-0.2c0-0.1-0.1-0.2-0.2-0.2l-1.7,0h0
	c0,0-0.1,0-0.1,0l-0.3,0.3c-0.1,0.1-0.1,0.2,0,0.2C47.8,31.1,47.8,31.1,47.8,31.1"/>
<path class="st1" d="M65.6,48.3C65.6,48.3,65.6,48.3,65.6,48.3c-0.1-0.1-0.1-0.1-0.1-0.2c0-0.1,0.1-0.1,0.2-0.1c0,0,0,0,0,0l0.5,0.1
	c0-0.1,0-0.2,0-0.3c-0.1-1.2-0.9-2.2-1.9-2.6l-0.2,0.4c0,0,0,0-0.1,0l0,0c0,0,0,0,0,0c0,0,0,0,0-0.1c0,0,0,0,0,0c0,0,0-0.1,0-0.1
	c0,0,0,0-0.1,0l-0.4-0.1c-0.1,0-0.1,0-0.1,0.1c0,0,0,0,0,0c0,0-0.1,0-0.1,0L63.2,45c-1.1,0.1-2,0.9-2.2,2.1l0.7,0.1
	c0.1,0,0.1,0,0.1,0.1c0,0,0,0.1,0,0.1c0,0,0,0.1-0.1,0.1c0,0,0,0,0,0l-2.2-0.4l0.3,0.9l0,0l1.1,0.2c0,0,0,0,0,0
	c0.3,1.4,1.5,2.4,2.7,2.4c0.9,0,1.7-0.6,2.1-1.5c0,0,0,0,0.1,0l1.4,0.3c0.2-0.3,0.4-0.6,0.5-0.7L65.6,48.3z"/>
<path class="st1" d="M95.7,14.2v2.8h-3.5l-0.5,1.3h4v2.6h-4.9l-0.5,1.3h5.4v2.6h-6.3L88.9,26h6.8v2.6H88l-0.5,1.3h8.3v2.6h-9.2
	L86,33.8h9.7v2.6H85.1l-0.5,1.3h11.1v2.6H83.7l-0.5,1.3h12.6v2.6H82.2l-0.5,1.3h14v1.5c0,0.4,0,0.7,0,1.1H80.8l-0.5,1.3h15.3
	c-0.1,0.9-0.1,1.8-0.3,2.6h-16l-0.5,1.3h16.3c-0.2,0.9-0.3,1.8-0.5,2.6H77.9l-0.5,1.3h16.8c-0.3,0.9-0.5,1.8-0.9,2.6H76.5L76,61
	h16.9c-0.4,0.9-0.8,1.8-1.2,2.6H75l-0.5,1.3H91c-0.5,0.9-1.1,1.8-1.6,2.6H73.6l-0.5,1.3h15.3c-0.7,0.9-1.4,1.8-2.2,2.6H72.2
	l-0.5,1.3h13.3c-0.9,0.9-1.9,1.8-2.9,2.6h-15V53.1c0,0,0,0,0,0l-7.4-1.4c0,0,0,0,0,0c0,0,0,0,0,0v23.5h-6.1V53.7c0,0,0,0-0.1,0
	c-0.1,0-0.2-0.1-0.2-0.2c0-0.1,0.1-0.2,0.2-0.2v-0.9l-3.5,2.5v20.5H36.7c-1-0.8-2-1.7-2.9-2.6h14.7L48,71.4H32.5
	c-0.8-0.8-1.5-1.7-2.2-2.6H47l-0.5-1.3H29.5c-0.6-0.8-1.1-1.7-1.6-2.6h17.7l-0.5-1.3H27.1c-0.4-0.9-0.9-1.7-1.2-2.6h18.2l-0.5-1.3
	H25.4c-0.3-0.9-0.6-1.7-0.9-2.6h18.2l-0.5-1.3h-18c-0.2-0.9-0.4-1.7-0.6-2.6h17.6l-0.5-1.3H23.4c-0.1-0.9-0.2-1.7-0.3-2.6h16.7
	L39.3,48H23.1c0-0.4,0-0.7,0-1.1v-1.5h15.3l-0.5-1.3H23.1v-2.6h13.9l-0.5-1.3H23.1v-2.6h12.4L35,36.4h-12v-2.6h11l-0.5-1.3H23.1
	v-2.6h9.6l-0.5-1.3h-9.1V26h8.1l-0.5-1.3h-7.7v-2.6h6.7l-0.5-1.3h-6.2v-2.6h5.3l-0.5-1.3h-4.8v-2.8c0-1.4-1.1-2.6-2.6-2.6l0,35.3
	c0,21.4,17.4,38.9,38.9,38.9c21.4,0,38.9-17.4,38.9-38.9l0-35.3C96.9,11.6,95.7,12.8,95.7,14.2 M66.2,53.6c0.2,0,0.3,0.1,0.3,0.3
	c0,0.2-0.1,0.3-0.3,0.3c-0.2,0-0.3-0.1-0.3-0.3C66,53.8,66.1,53.6,66.2,53.6z M61.6,53.5v-0.6c0,0,0,0,0,0l3.8,0.7c0,0,0,0,0,0v0.6
	c0,0,0,0,0,0c0,0,0,0,0,0c-0.1-0.1-0.2-0.2-0.3-0.2c-0.2-0.1-0.5,0-0.7,0.2c0,0,0,0,0,0c-0.1,0.1-0.2,0.1-0.4,0.1
	c-0.1,0-0.2,0-0.3-0.1c-0.1,0-0.2-0.1-0.2-0.2c0-0.1,0-0.2,0-0.3c0.1-0.1,0.2-0.2,0.3-0.2c0.1,0,0.1,0,0.2,0c0.1,0,0.1,0.1,0.1,0.1
	c0,0.1,0,0.1,0,0.2c0,0.1-0.1,0.1-0.2,0.1c0,0-0.1,0-0.1,0c0,0-0.1,0-0.1,0c0,0,0,0,0,0.1c0,0,0,0,0,0c0.1,0,0.1,0,0.2,0l0,0
	c0.1,0,0.1-0.1,0.2-0.1c0.1-0.1,0.1-0.2,0-0.3c0-0.1-0.1-0.2-0.2-0.2c-0.1,0-0.1,0-0.2,0c-0.1,0-0.3,0.1-0.3,0.2c0,0,0,0,0,0
	c0,0,0,0,0,0c-0.1-0.1-0.2-0.2-0.4-0.2c0,0-0.1,0-0.1,0c-0.1,0-0.2,0.1-0.2,0.2c0,0.1-0.1,0.2,0,0.3c0,0,0,0.1,0,0.1
	c0.1,0.1,0.2,0.1,0.3,0.1c0,0,0,0,0,0c0,0,0,0,0,0c0,0-0.1,0-0.1,0c0,0,0,0-0.1,0c-0.1,0-0.2-0.1-0.2-0.1c0-0.1,0-0.1,0-0.2
	c0-0.1,0.1-0.1,0.2-0.1c0,0,0.1,0,0.1,0c0.2,0,0.3,0.1,0.3,0.2c0,0.1,0,0.2-0.1,0.3c-0.1,0.1-0.1,0.1-0.2,0.2c-0.1,0-0.1,0-0.2,0
	c-0.2,0-0.4-0.1-0.5-0.3c0,0,0,0,0,0c-0.1-0.2-0.3-0.4-0.5-0.4c0,0,0,0-0.1,0C61.9,53.4,61.8,53.4,61.6,53.5
	C61.7,53.5,61.7,53.5,61.6,53.5C61.6,53.5,61.6,53.5,61.6,53.5z M60.7,52.8c0.2,0,0.3,0.1,0.3,0.3c0,0.2-0.1,0.3-0.3,0.3
	c-0.2,0-0.3-0.1-0.3-0.3C60.4,52.9,60.6,52.8,60.7,52.8z M51.1,54.8C51.1,54.8,51.1,54.8,51.1,54.8l2.1-1.4l0,0.6v0
	c-0.1,0-0.1,0-0.2,0c0,0,0,0,0,0c-0.1,0.1-0.2,0.2-0.3,0.4v0l0,0c0,0.2-0.2,0.3-0.3,0.4c0,0-0.1,0-0.1,0c0,0-0.1,0-0.1-0.1
	c0-0.1,0-0.1,0-0.2c0-0.1,0.1-0.2,0.2-0.2c0,0,0,0,0,0c0,0,0,0,0.1,0c0,0,0,0.1,0,0.1c0,0.1-0.1,0.1-0.1,0.1c0,0,0,0,0,0
	c0,0-0.1,0-0.1,0.1c0,0,0,0,0,0c0,0,0,0,0,0c0.1,0,0.2-0.1,0.2-0.2c0,0,0-0.1,0-0.1c0-0.1,0-0.2,0-0.2c0-0.1-0.1-0.1-0.1-0.1
	c0,0-0.1,0-0.1,0c-0.1,0-0.2,0.2-0.2,0.3c-0.1-0.1-0.1-0.1-0.2,0c0,0-0.1,0-0.1,0.1c-0.1,0.1-0.1,0.1-0.1,0.2c0,0.1,0,0.2,0,0.2
	c0,0.1,0.1,0.1,0.1,0.1h0c0,0,0.1,0,0.1-0.1c0,0,0,0,0,0c0,0,0,0,0-0.1c0,0-0.1,0-0.1,0c0,0,0,0,0,0c0,0,0,0,0,0c0,0,0,0,0,0
	c0,0,0-0.1,0-0.1c0,0,0-0.1,0.1-0.1c0,0,0.1,0,0.1-0.1c0.1,0,0.1,0,0.1,0.1c0,0.1,0,0.2,0,0.3c0,0.1-0.1,0.1-0.1,0.2
	c0,0-0.1,0.1-0.1,0.1c-0.1,0-0.1,0-0.2,0c0,0,0,0,0,0c-0.1-0.1-0.3-0.1-0.4,0c-0.1,0-0.1,0.1-0.1,0.2L51.1,54.8z M50.4,55.3
	c0-0.1,0.2-0.2,0.3-0.2c0.1,0,0.2,0.1,0.1,0.2c0,0.1-0.2,0.2-0.3,0.2C50.4,55.5,50.4,55.4,50.4,55.3z M59.4,83.3
	c-5,0-9.8-1-14.1-2.8h28.2C69.2,82.3,64.4,83.3,59.4,83.3z M76.2,79.2H42.6c-1.5-0.8-2.9-1.6-4.3-2.6h42.1
	C79.1,77.5,77.7,78.4,76.2,79.2z"/>
<path class="st1" d="M64.5,0c-1.8,0-3.5,0.5-5.1,1.4C57.9,0.5,56.2,0,54.3,0H20.5v2.6h33.8c1.6,0,3,0.5,4.3,1.4l0.8,0.6L60.2,4
	c1.3-0.9,2.7-1.4,4.3-1.4h33.8V0H64.5z"/>
<path class="st1" d="M14.4,105c0-0.1-0.1-0.1-0.3-0.2c0,0-0.1,0-0.1,0h-2.7c-0.3,0-0.5,0.1-0.5,0.4l-3.1,9.7l-0.3,0.9L7,114.8
	l-3.3-9.7c-0.1-0.2-0.2-0.4-0.5-0.4H0.4c-0.2,0-0.3,0.1-0.3,0.1C0,105,0,105.1,0,105.3l5.1,13.3c0.4,1,1.1,1.6,2.1,1.6l0.1,0
	c1,0,1.7-0.5,2.1-1.5l5-13.3C14.4,105.2,14.4,105,14.4,105"/>
<path class="st1" d="M24.5,105.9c-1.1-0.8-2.5-1.3-4.4-1.3c-1.9,0-3.6,0.4-5.2,1.2c-0.2,0.1-0.2,0.2-0.3,0.3c0,0.1,0,0.3,0.1,0.4
	l0.9,1.9c0.1,0.3,0.3,0.3,0.4,0.3c0.1,0,0.2,0,0.3-0.1c1-0.6,2.2-0.9,3.6-0.9c1.8,0,2.7,0.7,2.7,2.3v0.7c-0.8-0.3-2-0.5-3.4-0.5
	c-1.7,0-3.1,0.4-4.2,1.2c-1.2,0.9-1.8,2.2-1.8,3.7c0,1.7,0.6,2.9,1.9,3.8c1,0.7,2.4,1.1,4,1.1h4.9c0.7,0,1.2-0.2,1.6-0.6
	c0.4-0.4,0.6-1,0.6-1.7v-7.9C26.1,108.1,25.6,106.8,24.5,105.9 M22.7,113.7v3.3h-3.3c-1.9,0-2.8-0.7-2.8-2c0-1.2,0.9-1.8,2.9-1.8
	C20.8,113.1,21.9,113.3,22.7,113.7z"/>
<path class="st1" d="M37.9,112.4c-0.7-0.6-1.9-1.1-3.6-1.6c-1.4-0.4-2.2-0.7-2.6-1c-0.4-0.3-0.6-0.6-0.6-1c0-0.3,0-1.2,2.1-1.2
	c1.4,0,2.5,0.4,3.3,1.2c0.1,0.1,0.2,0.1,0.3,0.1c0.1,0,0.3-0.1,0.4-0.2c0,0,0,0,0,0l1.5-1.5c0.1-0.1,0.2-0.3,0-0.6
	c-1-1.4-2.9-2.1-5.4-2.1c-1.6,0-3,0.4-4,1.1c-1.1,0.8-1.6,1.8-1.6,3.2c0,1.3,0.5,2.4,1.4,3.2c0.8,0.7,2.1,1.3,4,1.8
	c1.1,0.3,1.8,0.6,2.2,0.8c0.5,0.3,0.7,0.6,0.7,1.1c0,0.4-0.2,0.8-0.7,1c-0.5,0.3-1.1,0.4-1.8,0.4c-1.7,0-3.1-0.5-4.2-1.5
	c-0.1-0.1-0.2-0.2-0.3-0.2c-0.1,0-0.2,0.1-0.3,0.2l-1.6,1.7c0,0,0,0,0,0.1c-0.1,0.2,0,0.3,0.1,0.5c1.4,1.5,3.4,2.3,6.1,2.3
	c1.7,0,3.1-0.4,4.2-1.1c1.2-0.8,1.9-2,1.9-3.5C39.3,114.3,38.8,113.2,37.9,112.4"/>
<path class="st1" d="M50.5,112.4c-0.7-0.6-1.9-1.1-3.6-1.6c-1.4-0.4-2.2-0.7-2.6-1c-0.4-0.3-0.6-0.6-0.6-1c0-0.3,0-1.2,2.1-1.2
	c1.4,0,2.5,0.4,3.3,1.2c0.1,0.1,0.2,0.1,0.3,0.1c0.1,0,0.3-0.1,0.4-0.2c0,0,0,0,0,0l1.5-1.5c0.1-0.1,0.2-0.3,0-0.6
	c-1-1.4-2.9-2.1-5.4-2.1c-1.6,0-3,0.4-4,1.1c-1.1,0.8-1.6,1.8-1.6,3.2c0,1.3,0.5,2.4,1.4,3.3c0.8,0.7,2.1,1.3,4,1.8
	c1.1,0.3,1.8,0.6,2.2,0.8c0.5,0.3,0.7,0.6,0.7,1.1c0,0.4-0.2,0.8-0.7,1c-0.5,0.3-1.1,0.4-1.8,0.4c-1.7,0-3.1-0.5-4.2-1.5
	c-0.1-0.1-0.2-0.2-0.3-0.2c-0.1,0-0.2,0.1-0.3,0.2l-1.6,1.7c0,0,0,0,0,0.1c-0.1,0.3,0,0.4,0.1,0.5c1.4,1.5,3.4,2.3,6.1,2.3
	c1.7,0,3.1-0.4,4.2-1.1c1.2-0.8,1.9-2,1.9-3.5C51.8,114.3,51.4,113.2,50.5,112.4"/>
<path class="st1" d="M59.5,104.5c-2.1,0-3.8,0.7-5.2,2.1c-1.4,1.4-2.1,3.4-2.1,5.8c0,2.4,0.7,4.3,2.2,5.8c1.3,1.4,3,2.1,5,2.1
	c2.2,0,3.9-0.7,5.3-2.1c1.4-1.5,2.1-3.4,2.1-5.8c0-2.4-0.7-4.3-2.2-5.8C63.3,105.2,61.6,104.5,59.5,104.5 M56.8,108.8
	c0.7-0.7,1.6-1.1,2.7-1.1c1.1,0,2,0.4,2.7,1.1c0,0,0,0,0,0c0.8,0.8,1.1,2,1.1,3.5c0,1.6-0.4,2.8-1.1,3.6c-0.7,0.8-1.6,1.1-2.7,1.1
	c-1,0-1.9-0.4-2.6-1.2c-0.8-0.9-1.1-2-1.1-3.6C55.7,110.8,56.1,109.6,56.8,108.8z"/>
<path class="st1" d="M79.7,104.8c0,0-0.1,0-0.1,0H77c-0.3,0-0.4,0.2-0.4,0.4v8.8c0,1-0.2,1.7-0.6,2.2c-0.4,0.5-1.1,0.8-2.2,0.8
	c-1.8,0-2.7-0.9-2.7-2.8v-8.8c0-0.4-0.2-0.5-0.4-0.5H68c-0.3,0-0.5,0.2-0.5,0.5v9.2c0,1.8,0.6,3.2,1.7,4.2c1.1,0.9,2.6,1.4,4.6,1.4
	c1.9,0,3.5-0.5,4.6-1.4c1.2-1,1.8-2.4,1.8-4.2v-9.2C80.1,105,80,104.8,79.7,104.8"/>
<path class="st1" d="M89.9,114.1c1-0.3,1.8-0.8,2.4-1.6c0.7-0.9,1-1.9,1-3.1c0-1.5-0.6-2.7-1.7-3.6c-0.9-0.7-2.2-1-3.6-1h-5
	c-1.1,0-1.7,0.6-1.7,1.8v12.9c0,0.3,0.2,0.4,0.4,0.4h2.6c0.2,0,0.4-0.2,0.4-0.4v-5h1.7l4,5.2c0.1,0.1,0.2,0.2,0.4,0.2h3
	c0.2,0,0.3-0.1,0.3-0.1c0-0.1,0.1-0.2,0-0.4L89.9,114.1z M90,109.6c0,0.7-0.2,1.2-0.5,1.4c-0.4,0.3-1.1,0.4-2,0.4h-2.7v-3.6h2.9
	C89.2,107.9,90,108.4,90,109.6z"/>
<path class="st1" d="M104,105.9c-1.1-0.8-2.5-1.3-4.4-1.3c-1.9,0-3.6,0.4-5.2,1.2c-0.1,0.1-0.2,0.2-0.3,0.3c0,0.1,0,0.3,0.1,0.4
	l0.9,1.9c0.1,0.3,0.3,0.3,0.4,0.3c0.1,0,0.2,0,0.3-0.1c1-0.6,2.2-0.9,3.6-0.9c1.8,0,2.7,0.7,2.7,2.3v0.7c-0.8-0.3-1.9-0.5-3.4-0.5
	c-1.7,0-3.1,0.4-4.2,1.2c-1.2,0.9-1.8,2.1-1.8,3.7c0,1.7,0.6,2.9,1.9,3.8c1,0.7,2.4,1.1,4,1.1h4.9c0.7,0,1.2-0.2,1.6-0.6
	c0.4-0.4,0.6-1,0.6-1.7v-7.9C105.7,108.1,105.1,106.8,104,105.9 M102.2,113.7v3.3h-3.3c-1.9,0-2.8-0.7-2.8-2c0-1.2,0.9-1.8,2.9-1.8
	C100.4,113.1,101.4,113.3,102.2,113.7z"/>
<path class="st1" d="M117.5,112.4c-0.7-0.6-1.9-1.1-3.6-1.6c-1.4-0.4-2.2-0.7-2.6-1c-0.4-0.3-0.6-0.6-0.6-1c0-0.3,0-1.2,2.1-1.2
	c1.4,0,2.5,0.4,3.3,1.2c0.1,0.1,0.2,0.1,0.3,0.1c0.1,0,0.3-0.1,0.4-0.2c0,0,0,0,0,0l1.5-1.5c0.1-0.1,0.2-0.3,0-0.6
	c-1-1.4-2.9-2.1-5.4-2.1c-1.6,0-3,0.4-4,1.1c-1.1,0.8-1.6,1.8-1.6,3.2c0,1.3,0.5,2.4,1.4,3.2c0.8,0.7,2.1,1.3,4,1.8
	c1.1,0.3,1.8,0.6,2.2,0.8c0.5,0.3,0.7,0.6,0.7,1.1c0,0.4-0.2,0.8-0.7,1c-0.5,0.3-1.1,0.4-1.8,0.4c-1.7,0-3.1-0.5-4.2-1.5
	c-0.1-0.1-0.2-0.2-0.3-0.2c-0.1,0-0.2,0.1-0.3,0.2l-1.6,1.7c0,0,0,0,0,0.1c-0.1,0.3,0,0.4,0.1,0.5c1.4,1.5,3.4,2.3,6.1,2.3
	c1.7,0,3.1-0.4,4.2-1.1c1.2-0.8,1.9-2,1.9-3.5C118.8,114.3,118.4,113.2,117.5,112.4"/>
<path class="st1" d="M18.5,94.1c-0.5,0-0.8,0.4-0.8,1v4.1c0,0.9-0.8,1.7-1.7,1.7h-0.3c-0.9,0-1.7-0.8-1.7-1.7v-4.1
	c0-0.6-0.3-1-0.8-1c-0.3,0-0.6,0.2-0.6,0.6c0,0.2,0.1,0.4,0.3,0.5v4.1c0,1.5,1.3,2.8,2.8,2.8H16c1.5,0,2.8-1.4,2.8-2.9v-4.1
	c0.2-0.1,0.3-0.3,0.3-0.5C19.1,94.4,18.9,94.1,18.5,94.1"/>
<path class="st1" d="M26.8,94.7c0-0.3-0.3-0.6-0.6-0.6c-0.5,0-0.8,0.4-0.8,1v4.4l0,0.2l-3.9-5.1c-0.1-0.1-0.3-0.4-0.7-0.4
	c-0.3,0-0.6,0.2-0.6,0.6c0,0.2,0.1,0.4,0.3,0.5v5.9c-0.2,0.1-0.3,0.3-0.3,0.5c0,0.3,0.3,0.6,0.6,0.6c0.5,0,0.8-0.4,0.8-1v-4.4l0-0.2
	l4,5.2c0.2,0.2,0.4,0.4,0.7,0.4c0.3,0,0.6-0.2,0.6-0.6c0-0.2-0.1-0.4-0.3-0.5v-5.9C26.6,95.1,26.8,94.9,26.8,94.7"/>
<path class="st1" d="M28.7,94.1c-0.3,0-0.6,0.3-0.6,0.6v6.8c0,0.3,0.3,0.6,0.6,0.6c0.3,0,0.6-0.3,0.6-0.6v-6.8
	C29.2,94.4,29,94.1,28.7,94.1"/>
<path class="st1" d="M36.7,94.1c-0.3,0-0.7,0.2-0.8,0.6l-2,5.2l0,0.1l-2-5.3c-0.1-0.4-0.4-0.6-0.8-0.6c-0.4,0-0.6,0.2-0.6,0.6
	c0,0.3,0.2,0.5,0.4,0.5l2.5,6.4c0.1,0.3,0.3,0.4,0.5,0.4c0.3,0,0.5-0.2,0.5-0.4l2.5-6.4c0.3-0.1,0.4-0.3,0.4-0.5
	C37.3,94.4,37,94.1,36.7,94.1"/>
<path class="st1" d="M43.5,101h-4v-2.2h3.1c0.3,0,0.6-0.2,0.6-0.6c0-0.3-0.2-0.6-0.6-0.6h-3.1v-2.4h3.8c0.3,0,0.6-0.2,0.6-0.6
	c0-0.3-0.2-0.6-0.6-0.6h-4.6c-0.3,0-0.6,0.2-0.6,0.6c0,0.2,0.1,0.4,0.3,0.5v5.9c-0.2,0.1-0.3,0.3-0.3,0.5c0,0.3,0.3,0.6,0.6,0.6h4.8
	c0.3,0,0.6-0.3,0.6-0.6C44,101.2,43.8,101,43.5,101"/>
<path class="st1" d="M50.5,100.9l-1.3-2.3c0.8-0.4,1.4-1.2,1.4-2.1c0-1.3-1-2.3-2.3-2.3h-2.9c-0.3,0-0.6,0.2-0.6,0.6
	c0,0.2,0.1,0.4,0.3,0.5v5.9c-0.2,0.1-0.3,0.3-0.3,0.5c0,0.3,0.3,0.6,0.6,0.6c0.5,0,0.8-0.4,0.8-1v-2.3H48l1.6,2.8
	c0.2,0.3,0.5,0.5,0.8,0.5c0.4,0,0.7-0.3,0.7-0.6C51,101.2,50.8,100.9,50.5,100.9 M49.5,96.5c0,0.7-0.5,1.2-1.2,1.2h-2.1v-2.4h2.1
	C48.9,95.2,49.5,95.8,49.5,96.5z"/>
<path class="st1" d="M54.6,97.6c-1.1-0.4-1.8-0.7-1.8-1.3c0-0.8,0.8-1.1,1.6-1.1c0.5,0,1,0.2,1.4,0.5c0.1,0.1,0.2,0.1,0.4,0.1
	c0.3,0,0.6-0.2,0.6-0.5c0-0.2-0.1-0.3-0.2-0.5c-0.6-0.5-1.3-0.7-2.1-0.7c-1.3,0-2.7,0.8-2.7,2.2c0,1.4,1.3,2,2.4,2.4
	c1.1,0.4,1.9,0.7,1.9,1.4c0,0.7-0.9,1-1.7,1c-0.6,0-1.1-0.2-1.5-0.4c-0.1-0.1-0.2-0.1-0.4-0.1c-0.3,0-0.5,0.3-0.5,0.5
	c0,0.2,0.1,0.4,0.3,0.5c0.6,0.4,1.5,0.7,2.2,0.7c1.4,0,2.8-0.7,2.8-2.1C57,98.5,55.6,97.9,54.6,97.6"/>
<path class="st1" d="M58.5,94.1c-0.3,0-0.6,0.3-0.6,0.6v6.8c0,0.3,0.3,0.6,0.6,0.6c0.3,0,0.6-0.3,0.6-0.6v-6.8
	C59.1,94.4,58.8,94.1,58.5,94.1"/>
<path class="st1" d="M63.6,94.1H61c-0.3,0-0.6,0.2-0.6,0.6c0,0.2,0.1,0.4,0.3,0.5v5.9c-0.2,0.1-0.3,0.3-0.3,0.5
	c0,0.3,0.3,0.6,0.6,0.6h2.6h0c2.3,0,3.5-2.1,3.5-4C67.1,96.2,65.9,94.1,63.6,94.1 M66,98.1c0,1.4-0.8,2.9-2.4,2.9h-1.8v-5.7h1.8
	C65.2,95.3,66,96.7,66,98.1z"/>
<path class="st1" d="M73.7,101l-2.4-6.5c-0.1-0.3-0.3-0.4-0.6-0.4c-0.3,0-0.5,0.2-0.6,0.4l-2.4,6.5c-0.3,0.1-0.4,0.3-0.4,0.5
	c0,0.3,0.3,0.6,0.6,0.6c0.4,0,0.7-0.3,0.9-0.7l0.5-1.4h2.9l0.5,1.4c0.1,0.3,0.4,0.7,0.9,0.7c0.3,0,0.6-0.3,0.6-0.6
	C74.1,101.3,74,101,73.7,101 M71.7,98.9h-2.1l1-2.6l0.1-0.2L71.7,98.9z"/>
<path class="st1" d="M78,94.1h-2.6c-0.3,0-0.6,0.2-0.6,0.6c0,0.2,0.1,0.4,0.3,0.5v5.9c-0.2,0.1-0.3,0.3-0.3,0.5
	c0,0.3,0.3,0.6,0.6,0.6H78h0c2.3,0,3.5-2.1,3.5-4C81.5,96.2,80.2,94.1,78,94.1 M80.4,98.1c0,1.4-0.8,2.9-2.4,2.9h-1.8v-5.7H78
	C79.5,95.3,80.4,96.7,80.4,98.1z"/>
<path class="st1" d="M87.8,101h-4v-2.2h3.1c0.3,0,0.6-0.2,0.6-0.6c0-0.3-0.2-0.6-0.6-0.6h-3.1v-2.4h3.8c0.3,0,0.6-0.2,0.6-0.6
	c0-0.3-0.3-0.6-0.6-0.6H83c-0.3,0-0.6,0.2-0.6,0.6c0,0.2,0.1,0.4,0.3,0.5v5.9c-0.2,0.1-0.3,0.3-0.3,0.5c0,0.3,0.3,0.6,0.6,0.6h4.8
	c0.3,0,0.6-0.3,0.6-0.6C88.3,101.2,88.1,101,87.8,101"/>
<path class="st1" d="M95.8,94.1h-2.6c-0.3,0-0.6,0.2-0.6,0.6c0,0.2,0.1,0.4,0.3,0.5v5.9c-0.2,0.1-0.3,0.3-0.3,0.5
	c0,0.3,0.3,0.6,0.6,0.6h2.6h0c2.3,0,3.5-2.1,3.5-4C99.4,96.2,98.1,94.1,95.8,94.1 M98.2,98.1c0,1.4-0.8,2.9-2.4,2.9h-1.8v-5.7h1.8
	C97.4,95.3,98.2,96.7,98.2,98.1z"/>
<path class="st1" d="M105.6,101h-4v-2.2h3.1c0.3,0,0.6-0.2,0.6-0.6c0-0.3-0.2-0.6-0.6-0.6h-3.1v-2.4h3.8c0.3,0,0.6-0.2,0.6-0.6
	c0-0.3-0.3-0.6-0.6-0.6h-4.6c-0.3,0-0.6,0.2-0.6,0.6c0,0.2,0.1,0.4,0.3,0.5v5.9c-0.2,0.1-0.3,0.3-0.3,0.5c0,0.3,0.3,0.6,0.6,0.6h4.8
	c0.3,0,0.6-0.3,0.6-0.6C106.2,101.2,105.9,101,105.6,101"/>
</svg>
