<svg xmlns="http://www.w3.org/2000/svg" width="17.75" height="18.5" viewBox="0 0 17.75 18.5">
  <path id="Notifications" d="M19.952,11.888,19.58,8.677A6.329,6.329,0,0,0,15.2,2.724v-.8a1.923,1.923,0,0,0-3.845,0v.8A6.33,6.33,0,0,0,6.981,8.677l-.372,3.21a2.089,2.089,0,0,0-.8,1.653v.126c0,1.569,1.535,1.569,2.112,1.569h2.121a3.133,3.133,0,0,0,6.223,0h2.374c.578,0,2.113,0,2.113-1.569V13.54A2.087,2.087,0,0,0,19.952,11.888Zm-6.8,4.534a1.571,1.571,0,0,1-1.4-.933h2.806A1.57,1.57,0,0,1,13.154,16.422Zm6.02-2.792a3.661,3.661,0,0,1-.534.027H7.921a3.619,3.619,0,0,1-.534-.027V13.54a.531.531,0,0,1,.306-.479l.392-.189.47-4.058.005-.091A4.738,4.738,0,0,1,12.309,4.1l.628-.131V1.923a.344.344,0,0,1,.688,0V3.972l.628.131A4.739,4.739,0,0,1,18,8.724l.475,4.149.391.189a.531.531,0,0,1,.306.478v.089Z" transform="translate(-5.558 0.25)" fill="#354052" stroke="#354052" stroke-width="0.5"/>
  <g id="Elipse_12" data-name="Elipse 12" transform="translate(10.75 2.75)" fill="#f35162" stroke="#fff" stroke-width="1">
    <circle cx="3.5" cy="3.5" r="3.5" stroke="none"/>
    <circle cx="3.5" cy="3.5" r="3" fill="none"/>
  </g>
</svg>
