<svg xmlns="http://www.w3.org/2000/svg" width="975.67" height="650.447" viewBox="0 0 975.67 650.447">
  <g id="Grupo_5" data-name="Grupo 5" transform="translate(-2 -2)">
    <path id="Caminho_1" data-name="Caminho 1" d="M2,1176.587v-115.78c1.835-.041,3.671-.052,5.5-.127,10.5-.435,21-1.331,31.5-1.236,20.264.184,40.525.855,60.782,1.486a33.82,33.82,0,0,0,14.591-2.525c4.783-2.039,9.572-4.069,14.3-6.239,11.981-5.5,24.592-8.171,37.708-9.016,6.8-.438,13.568-1.438,20.329-2.347s13.463-2.292,20.241-2.973a38.114,38.114,0,0,1,22.353,4.234c6.179,3.344,10.543,8.247,12.343,15.182,3.065,11.81-3.632,22.094-15.653,23.745a56.54,56.54,0,0,1-10.037.248c-4.976-.211-9.937-.964-14.91-1.021-11.261-.13-18.605,5.152-22.384,15.792a41.291,41.291,0,0,0-1.362,22.439c3.714,18.191,14.039,31.582,30.516,39.809,22.213,11.091,45.2,12.038,68.3,2.953,21.455-8.435,37.018-23.687,48.284-43.537,7.8-13.751,11.928-28.719,14.551-44.2,1.028-6.072,2.4-12.094,3.848-18.083a21.082,21.082,0,0,1,4.632-8.856,12.728,12.728,0,0,1,12.852-4.386c1.061.205,2.1.533,3.14.828a155.591,155.591,0,0,1,40.962,18.651c4.485,2.842,8.95,5.721,13.517,8.425a97.676,97.676,0,0,0,47.22,13.764,157.46,157.46,0,0,0,31.691-2.555c13.456-2.284,26.853-4.976,40.491-5.986a18.642,18.642,0,0,0,12.226-5.369,57.534,57.534,0,0,0,7.334-8.646c3.292-4.954,6.244-10.147,9.131-15.355,3.781-6.822,7.236-13.824,11.047-20.629,10.673-19.054,24.4-35.508,42-48.586a144.926,144.926,0,0,1,64.113-26.852,44.142,44.142,0,0,1,10.974-.224c3.038.276,3.8,2.193,2.337,4.906a20.137,20.137,0,0,1-3.029,4.2c-2.372,2.524-4.812,5-7.395,7.31-5.011,4.476-10.133,8.828-15.223,13.216-9.775,8.428-19.412,17-27.746,26.911-7.372,8.769-13.588,18.238-17.592,29.049a55.628,55.628,0,0,0-3.227,28.426c2.256,14.209,9.545,25.523,20.928,34.012,19.444,14.5,41.111,17.532,64.143,10.91,17.55-5.046,31.458-15.664,42.908-29.685,7.87-9.638,13.793-20.458,19.239-31.575,3-6.129,5.845-12.354,9.191-18.292a118.227,118.227,0,0,1,8.732-12.881,21.653,21.653,0,0,1,8.6-6.794c13.09-5.763,26.141-11.624,39.346-17.111a100.385,100.385,0,0,1,34.385-7.809c16.1-.691,31.015,2.869,44.231,12.333a158.407,158.407,0,0,1,12.95,10.338c11.425,10.149,22.64,20.534,34.064,30.683,5.416,4.812,11.12,9.3,16.693,13.937v53.337a32.608,32.608,0,0,1-3.507-.356,44.786,44.786,0,0,1-20.825-10.149c-5.025-4.43-9.715-9.27-14.291-14.175-5.544-5.942-10.747-12.2-16.219-18.211a106.355,106.355,0,0,0-16.553-15.09c-12.031-8.622-25.485-12.169-40.174-11.31a104.162,104.162,0,0,0-24.529,4.678c-12.681,3.893-24.611,9.594-36.669,15.018a60.491,60.491,0,0,0-18.536,12.941c-2.507,2.551-4.984,5.132-7.458,7.715-4.423,4.619-8.772,9.311-13.26,13.865a126.8,126.8,0,0,1-36.056,25.768c-14.4,6.85-29.533,10.736-45.521,10.483-23.407-.37-44.1-8.322-62.031-23.307-5.149-4.3-9.874-9.111-14.813-13.667-2.15-1.983-4.255-4.032-6.544-5.844-5.734-4.539-9.451-4.333-14.437.928-2.453,2.588-4.561,5.5-6.846,8.252-3.323,4-6.53,8.1-10.03,11.943a22.1,22.1,0,0,1-18,7.477c-8.23-.335-16.464-.685-24.7-.769-11.376-.117-22.757-.142-34.13.071-11.7.219-23.367,1.3-35.087.332-17.5-1.449-33.53-6.8-47.35-17.811-5.326-4.243-10.217-9.045-15.176-13.73-3.937-3.719-7.579-7.753-11.526-11.461a54.38,54.38,0,0,0-18.128-11.231c-4.6-1.744-8.114-.724-10.6,3.484a33.7,33.7,0,0,0-3.362,8.048c-1.707,6.152-3.017,12.413-4.628,18.594-6,23.012-16.6,43.557-33.825,60.153C286.342,1173.238,255,1183.3,218.6,1175.254c-17.819-3.94-33.218-12.34-45.3-26.321a109.667,109.667,0,0,1-17.122-27.872c-2.4-5.453-4.585-11.009-7.165-16.374a44.269,44.269,0,0,0-5.331-8.489,12.005,12.005,0,0,0-11.632-4.382,44.186,44.186,0,0,0-8.155,2.077c-3.368,1.182-6.627,2.68-9.918,4.079a38.068,38.068,0,0,1-15.506,3.033q-14.307-.144-28.617.118c-12.252.214-24.495.7-36.536,3.285-5.325,1.143-10.487,2.764-15.039,5.9-6.2,4.269-8.52,10.171-6.887,17.528a36.377,36.377,0,0,0,4.69,11.019,82.248,82.248,0,0,0,13.293,16.367c5.614,5.417,11.471,10.582,17.151,15.933a71.443,71.443,0,0,1,6.754,7.014c3.11,3.859,1.965,6.305-2.991,6.921a8.244,8.244,0,0,1-1.3.1c-4-.142-8.03-.048-12-.5a153.3,153.3,0,0,1-31.562-7.429A25.412,25.412,0,0,0,2,1176.587Z" transform="translate(0 -639.27)" fill="#49184c"/>
    <path id="Caminho_2" data-name="Caminho 2" d="M2,954.539V931.773c1.728.05,3.457.161,5.184.139,21.567-.273,43.134-.745,64.7-.779,11.153-.018,22.329.428,33.453,1.233a91.45,91.45,0,0,0,25.493-1.619,142.049,142.049,0,0,1,30.976-3.067c13.656.188,27.317.042,40.967.391a140.742,140.742,0,0,1,18.72,1.88,52.458,52.458,0,0,1,11.8,3.484c17.32,7.263,26.944,20.382,29.142,39.025,1.809,15.339-5.3,29.691-18.805,37.1a64.471,64.471,0,0,1-11.7,4.759c-4.432,1.391-9.086,2.067-13.546,3.384a44.745,44.745,0,0,0-9.91,3.9c-4.9,2.857-6.585,7.555-5.768,13.111.754,5.125,3.327,9.338,6.814,13.046a39.559,39.559,0,0,0,14.238,9.479c20.392,8.246,40.327,6.708,59.54-3.569,17.8-9.523,29.861-24.391,38.044-42.606,5.149-11.462,7.777-23.612,9.784-35.934,1.114-6.839,2.227-13.684,4.587-20.24a30.654,30.654,0,0,1,6.915-11.639,15.434,15.434,0,0,1,14.838-4.555c1.06.22,2.125.416,3.183.643,13.491,2.89,26.372,7.722,39.346,12.278,11.949,4.2,23.85,8.594,35.983,12.19a104.681,104.681,0,0,0,40.848,3.632,138.9,138.9,0,0,0,29.719-6.724c8.422-2.816,16.722-6.017,25.206-8.622a37.089,37.089,0,0,0,15.443-9.233c1.852-1.824,3.677-3.684,5.4-5.626,8.279-9.315,16.353-18.818,24.812-27.965,14.478-15.655,30.369-29.681,48.6-40.909,13.625-8.39,28.163-14.838,43.15-20.29,20.57-7.482,40.936-15.4,60.544-25.215a140.557,140.557,0,0,1,28.318-10.406c5.785-1.472,11.636-2.75,17.657-2.03,7.39.883,9.448,4.441,6.362,11.2-1.57,3.436-3.671,6.627-5.468,9.963-2.515,4.669-5.21,9.264-7.361,14.1a28.491,28.491,0,0,0-2.251,9.075c-.56,6.739,2.5,10.315,9.171,11.493,4.824.851,9.554.065,14.132-1.259q9.981-2.888,19.777-6.406c14-5.026,28.13-9.489,43.009-11.1a100.52,100.52,0,0,1,29.468.652c12.2,2.28,22.968,7.731,32.766,15.125,15.4,11.621,30.627,23.472,44.632,36.8q6.361,6.051,12.8,12.023c1.571,1.45,3.3,2.733,4.95,4.091v26.668c-4.019-3.446-8.2-6.721-12.028-10.369q-20.955-19.977-43.141-38.567c-3.406-2.84-6.991-5.493-10.661-7.984a63.431,63.431,0,0,0-24.2-9.895,95.148,95.148,0,0,0-30.744-.468c-11.471,1.59-22.353,5.19-32.935,9.748-10.149,4.371-20.176,9.033-30.386,13.255A31.888,31.888,0,0,0,779.5,909.662a66.041,66.041,0,0,0-8,15.209c-2.5,6.579-4.841,13.221-7.217,19.847-4.068,11.347-8.7,22.421-15.474,32.479-9.368,13.914-21.329,24.83-37.08,31-19.887,7.79-39.48,7.121-58.207-3.609-12.5-7.163-20.921-17.728-24.178-31.973-2.5-10.938-.876-21.542,3.22-31.834,4.43-11.128,11.258-20.714,19.314-29.471,10.763-11.7,23.02-21.709,35.828-31.026,10.951-7.966,22.216-15.5,33.263-23.337,4.058-2.878,8-5.948,11.776-9.184a19.291,19.291,0,0,0,4.168-5.332c1.822-3.318.435-5.636-3.3-5.571a31.232,31.232,0,0,0-7.366,1.018c-6.386,1.687-12.723,3.564-19.06,5.432-14.019,4.131-28.124,8-42.018,12.52a164.394,164.394,0,0,0-69.746,43.758A215.79,215.79,0,0,0,570.8,931.43c-4.628,7.2-9.113,14.5-13.971,21.544a100.556,100.556,0,0,1-9.274,11.267,21.633,21.633,0,0,1-13.121,6.555c-4.174.613-8.317,1.471-12.446,2.351-12.277,2.618-24.388,5.985-36.865,7.707a109.315,109.315,0,0,1-45.049-2.741c-10.405-2.922-19.98-7.719-29.446-12.781-11.766-6.291-23.782-12.043-36.465-16.236a168.106,168.106,0,0,0-16.59-4.453c-3.8-.837-7.268.53-10.249,3.005a18.156,18.156,0,0,0-5.769,8.13,124.837,124.837,0,0,0-3.866,13.715c-1.718,8.04-2.77,16.232-4.692,24.218-5.118,21.27-15.081,39.916-31.652,54.49-21.044,18.506-45.385,25.533-73.008,19.43-12.058-2.664-23.008-7.767-31.575-17-8.22-8.856-12.883-19.17-12.143-31.523.672-11.228,7.465-18.545,18.649-19.792,3.756-.419,7.569-.305,11.353-.489,4.431-.215,8.9-.17,13.28-.8,11.833-1.7,20.185-9.23,22.329-20.164a31.217,31.217,0,0,0-6.978-27.045c-5.177-6.23-12.052-9.771-19.755-11.839-9.707-2.606-19.529-2.034-29.379-1.063-8.511.839-17.028,1.7-25.562,2.224-13.825.849-27.285,3.222-40.2,8.38a138.962,138.962,0,0,1-13.773,4.879,36.373,36.373,0,0,1-10.215,1.484c-9.207-.129-18.405-.746-27.611-1.058C51.822,952.985,26.9,952.945,2,954.539Zm685.1,48.866a52.206,52.206,0,0,0,20.638-4.29c16.544-7.051,27.545-19.483,34.38-35.853,4.259-10.2,6.052-20.966,7.169-31.883,1.245-12.171,2.572-24.334,3.791-36.508a117.153,117.153,0,0,0,.85-12.62c-.041-4.85-2.252-7.138-7.014-7.781a30.6,30.6,0,0,0-6.467-.154c-8.746.7-16.966,3.392-24.9,6.985-15.633,7.079-29.412,16.979-42.337,28.14a116.03,116.03,0,0,0-20.362,22.22,64.049,64.049,0,0,0-9.8,21.441c-4.594,19.434,4.014,37.25,22.1,45.668A50.391,50.391,0,0,0,687.1,1003.405Z" transform="translate(0 -545.359)" fill="#49184c"/>
    <path id="Caminho_3" data-name="Caminho 3" d="M977.67,1734v22.766c-2.7.754-5.371,1.625-8.1,2.243-19.353,4.383-38.813,5.352-58.4,1.663-11.548-2.175-22.6-6.01-33.6-10.015q-8.4-3.054-16.953-5.657a35.9,35.9,0,0,0-28.911,3.055c-4.261,2.359-8.666,4.482-13.1,6.5-17.13,7.775-35.111,9.512-53.43,6.259-20.792-3.692-41.495-7.92-62.159-12.284a162.566,162.566,0,0,0-47.156-3.316,453.982,453.982,0,0,1-64.325.261c-25.754-1.546-51.521-2.516-77.33-2.51a256.487,256.487,0,0,0-64.279,8.5c-10.172,2.625-20.171,5.912-30.285,8.767-15.246,4.3-30.672,5.512-46.312,2.35-4.248-.859-8.517-1.614-12.759-2.5-6.573-1.367-13.257-2.38-19.673-4.286-19.89-5.91-40.272-8.289-60.885-9.454q-15.248-.862-30.456-2.4c-14.236-1.462-28.464-2.821-42.8-2.732-7.911.049-15.836.2-23.734-.15-19.157-.856-38.322-1.713-57.447-3.082-15.662-1.12-31.269-3-46.9-4.5-9.706-.931-19.411-1.909-29.133-2.63-16.027-1.188-31.757,1.685-47.535,3.8v-29.27c.64.108,1.289.182,1.92.33,12.863,3.014,25.732,6,38.582,9.066a460.067,460.067,0,0,0,79.591,11.884c20.249,1.206,40.52.714,60.788.6,13.651-.079,27.314.059,40.954.575a272.551,272.551,0,0,0,50.891-2.64c12.106-1.817,24.161-3.976,36.263-5.825,11.976-1.83,23.989-2.109,35.893.48,7.089,1.542,14.085,3.515,21.115,5.322,11.136,2.863,22.42,4,33.839,2.39,8.684-1.226,17.361-2.6,25.953-4.342A295.357,295.357,0,0,1,476.743,1717c18.865-.621,37.713-.216,56.562.574,19.282.808,38.49,2.5,57.689,4.437,12.716,1.282,25.477,2.354,38.243,2.837,12.337.467,24.712-.155,37.062.111a197.968,197.968,0,0,1,25.585,1.768c13.589,2.077,27.055,4.972,40.558,7.6,9.675,1.881,19.278,4.192,29,5.763,12.784,2.066,29.907-1.987,39.069-18.148,1.817-3.205,3.525-6.475,5.416-9.635,2.613-4.366,5.21-8.754,8.078-12.952a31.6,31.6,0,0,1,9.84-9.336c6.076-3.655,12.486-4.345,18.985-1.492a51.39,51.39,0,0,1,9.226,5.391c4.218,3.035,8.2,6.406,12.251,9.664a189.035,189.035,0,0,0,22.346,15.66c23.287,13.726,48.254,20.175,75.328,17.28C967.241,1735.96,972.442,1734.854,977.67,1734Z" transform="translate(0 -1136.841)" fill="#49184c"/>
    <path id="Caminho_4" data-name="Caminho 4" d="M977.67,1569.155v26.018c-1.177.129-2.367.188-3.53.4-12.328,2.21-24.716,3.228-37.2,1.658-21.334-2.682-39.954-11.2-55.226-26.45-4.585-4.58-8.488-9.834-12.816-14.679-3.6-4.032-7.185-8.113-11.116-11.811a28.381,28.381,0,0,0-13.406-6.98c-8.127-1.823-15.7-.117-22.914,3.693a52.927,52.927,0,0,0-19.414,17.881c-3.291,4.948-6.06,10.247-9.005,15.421-2.357,4.141-4.382,8.492-6.984,12.468-7.547,11.528-18.394,16.121-31.888,13.97-12.084-1.926-24.107-4.245-36.136-6.5s-24.055-4.625-36.327-5.112c-10.717-.425-21.44-.873-32.163-.941-16.386-.1-32.69-1.3-48.974-2.96-13.9-1.418-27.786-3.088-41.716-4.155q-35.822-2.743-71.764-3.138a236.55,236.55,0,0,0-37.6,2.224c-9.535,1.416-19.045,3.01-28.594,4.324a87.217,87.217,0,0,1-40.444-3.436q-9.232-3.131-18.456-6.281a67.858,67.858,0,0,0-39.7-1.782c-10.37,2.692-20.7,5.64-30.863,9.011a262.627,262.627,0,0,1-77.437,13.754q-37.7.8-75.4,1.462a355.011,355.011,0,0,1-41.231-1.552A360.623,360.623,0,0,1,29.591,1582.3c-9.231-2.75-18.4-5.723-27.591-8.595v-7.155c1.13.348,2.289.625,3.386,1.056,36.636,14.388,74.516,21.8,113.976,20.326,9.961-.372,19.935-.61,29.872-1.327q15.218-1.1,30.37-3.065c9.454-1.235,18.866-2.571,28.421-2.963,11.357-.466,22.73-1.1,34.027-2.311a153.683,153.683,0,0,0,50.6-14.713c12.058-5.808,23.2-13.068,34.047-20.852,3.694-2.652,7.5-5.145,11.316-7.627a14.456,14.456,0,0,1,9.921-2.375,49.729,49.729,0,0,1,9.871,1.831c5.923,2.05,11.729,4.477,17.473,7,6.447,2.828,12.715,6.062,19.162,8.888a72.125,72.125,0,0,0,29.314,6.5c8.657-.029,17.352-.245,25.961-1.084a347.854,347.854,0,0,1,54.233-.693q25.477,1.494,50.951,3.037c8.762.525,17.534.924,26.282,1.627,12.637,1.016,25.235,2.611,37.886,3.319,18.065,1.01,36.158,1.622,54.248,2.066,17.561.431,35.086,1.18,52.564,3.031a127.027,127.027,0,0,0,25.642.283c7.443-.719,13.5-3.667,17.953-9.758,1.406-1.925,2.89-3.793,4.305-5.711,2.317-3.139,4.556-6.336,6.917-9.441a119.189,119.189,0,0,1,29.908-28.174,79.986,79.986,0,0,1,21.98-10.324c15.992-4.488,30.022-1.067,41.882,10.614a81.4,81.4,0,0,1,7.936,9.018c3.383,4.5,6.381,9.284,9.636,13.881,3.378,4.772,6.61,9.681,10.356,14.153,9.041,10.791,20.673,17.242,34.534,19.761C950.827,1575.053,964.325,1573.119,977.67,1569.155Z" transform="translate(0 -1012.974)" fill="#49184c"/>
    <path id="Caminho_5" data-name="Caminho 5" d="M2,451.527V429.412c1.08,0,2.16-.03,3.24-.01,8.125.146,16.249.358,24.375.438,8.778.087,17.557.02,26.336.082a59.813,59.813,0,0,1,17.009,2.43c12.748,3.871,25.508,7.73,38.113,12.034a91.611,91.611,0,0,1,34.121,20.3,220.1,220.1,0,0,1,15.618,16.957c4.762,5.616,9.077,11.61,13.612,17.419a66.652,66.652,0,0,0,25.655,20.486,47.814,47.814,0,0,1,18.316,14.2,50.976,50.976,0,0,0,21.489,15.814,156.9,156.9,0,0,0,16.241,5.646c3.819,1.052,7.881,1.279,11.855,1.669a12.074,12.074,0,0,0,4.149-.6,5.471,5.471,0,0,0,4.4-5.376,34.991,34.991,0,0,0-.516-6.445c-.424-2.78-1.275-5.506-1.55-8.294-.518-5.262,1.595-8.216,6.744-9.492a38.38,38.38,0,0,1,7.068-.921c8.2-.459,16.2.911,24.107,2.915,15.873,4.025,31.817,7.478,48.263,8.322,15.216.781,30.325.4,45.333-2.357,14.808-2.721,28.036-8.308,37.492-20.72a8.491,8.491,0,0,1,.665-.713,42.878,42.878,0,0,1,10.661-8.442c6.028-3.2,11.943-6.636,18.114-9.527a496.123,496.123,0,0,0,52.491-28.588c5.052-3.156,10.163-6.251,15.441-9a99.911,99.911,0,0,1,13.39-5.794,22.147,22.147,0,0,1,19.119,1.89c3.084,1.806,6.066,3.784,9.1,5.682,2.846,1.783,5.634,3.669,8.554,5.321a24.5,24.5,0,0,0,19.155,2.539,89.729,89.729,0,0,0,14.048-4.989c19.931-9.35,39.375-19.614,57.71-31.871,6.217-4.156,12.418-8.337,18.679-12.425,17.931-11.709,36.675-21.87,56.883-29.1a224.342,224.342,0,0,0,31.785-14.005,132.121,132.121,0,0,1,32.35-12.5c13.267-3.185,26.561-6.291,39.925-9.028a115.922,115.922,0,0,0,41.835-17.147c6.028-4.042,11.867-8.367,17.758-12.611,5.276-3.8,10.417-7.8,15.793-11.446a41.936,41.936,0,0,1,8.886-4.659c5.933-2.195,9.91.248,11.245,6.468a22.573,22.573,0,0,1-2.27,15.152,67.007,67.007,0,0,1-7.171,11.563c-4.308,5.42-9.174,10.394-13.727,15.623a61.866,61.866,0,0,0-5.63,7.129c-3.441,5.383-2.833,10.131,1.693,14.7a27.567,27.567,0,0,0,4.51,3.7,63.767,63.767,0,0,0,7.061,4c11.414,5.492,23.561,7.931,36.146,8.458v27.969c-1.278-.219-2.558-.431-3.835-.659a345.542,345.542,0,0,1-34.274-7.48c-18.195-5.191-35.552-12.48-52.564-20.676q-11.858-5.713-23.862-11.125c-14.476-6.509-29.31-6.915-44.447-2.481-10.247,3-19.791,7.612-29.388,12.169-7.43,3.528-14.885,7.09-22.585,9.946a310.2,310.2,0,0,0-44.038,20.028c-10.866,6.094-21.584,12.465-32.192,19-24.573,15.135-50.429,27.906-75.863,41.455a74.955,74.955,0,0,1-11.1,4.583c-5.81,1.979-11.848,3.05-17.908,1.546a83.465,83.465,0,0,1-11.905-4.206c-4.795-2-9.391-4.484-14.2-6.45a33.483,33.483,0,0,0-25.382-.235c-3.135,1.2-6.259,2.462-9.265,3.945a299.441,299.441,0,0,0-31.289,17.935,66.387,66.387,0,0,0-20.262,19.9c-6.36,10.005-15.425,16.483-26.37,20.708-12.988,5.012-26.551,7.069-40.3,8.2a221,221,0,0,1-31.835.293,313.027,313.027,0,0,1-36.485-3.965c-9.267-1.68-18.454-3.794-27.694-5.632-3.177-.632-6.384-1.271-9.66-.509-3.607.839-5.489,2.844-5.626,6.534a48.767,48.767,0,0,0,.4,6.8c.368,3.554,1.105,7.089,1.2,10.645a28.768,28.768,0,0,1-1,8.306,5.753,5.753,0,0,1-6.411,4.411,26.083,26.083,0,0,1-6.331-1.24c-4.3-1.472-8.509-3.213-12.758-4.836-13.455-5.139-26.929-10.232-40.363-15.427a70.918,70.918,0,0,1-25.338-16.676,66.73,66.73,0,0,0-17.465-12.85,57.7,57.7,0,0,1-14.531-10.321c-6-5.95-11.9-12.009-17.618-18.231-13.634-14.842-29.813-25.7-49.031-31.923-7.421-2.4-14.84-4.81-22.29-7.117a82.078,82.078,0,0,0-22.995-3.94c-11.487-.185-22.977-.152-34.463-.353C18.236,452.178,10.119,451.8,2,451.527Z" transform="translate(0 -205.61)" fill="#49184c"/>
    <path id="Caminho_6" data-name="Caminho 6" d="M2,115.178c2.432-.906,4.929-1.668,7.283-2.744,9.1-4.158,18.05-3.871,26.913.654,2.507,1.28,5.06,2.49,7.479,3.923A101.751,101.751,0,0,0,73.81,128.784c4.543,1.007,9.03,2.279,13.518,3.517,14.626,4.033,27.607,11.286,39.686,20.312,10.963,8.192,20.977,17.468,30.857,26.9q7.173,6.845,14.208,13.835a174.317,174.317,0,0,1,23.932,29.463c3.117,4.823,6.143,9.711,9.433,14.413a99.414,99.414,0,0,0,7.672,9.652c5.33,5.9,12.106,8.023,19.965,7.216a96.5,96.5,0,0,0,18.056-3.944,122.193,122.193,0,0,1,14.47-3.6c8.4-1.448,16.668.049,24.721,2.331,10.517,2.98,20.953,6.262,31.355,9.628a172.8,172.8,0,0,0,40.411,7.727,244.685,244.685,0,0,0,35.071.377c38-2.588,73.11-13.552,103.961-36.491,14-10.409,25.871-23.033,36.982-36.4,7.478-9,14.872-18.072,22.478-26.962a93.6,93.6,0,0,1,16.729-15.831,62.717,62.717,0,0,1,10.606-6.242c8.742-3.892,17.338-3.092,25.451,1.966,2.567,1.6,4.892,3.583,7.385,5.309,3.38,2.34,6.69,4.821,10.252,6.851a24.115,24.115,0,0,0,21.913,1.509,81.862,81.862,0,0,0,13.474-7.076,116.532,116.532,0,0,0,22.549-19.541c9.275-10.215,11.79-22.373,9.385-35.709a64.339,64.339,0,0,0-7.739-20.591c-4.092-7.139-8.572-14.055-12.743-21.15-3.455-5.877-6.831-11.809-10.006-17.841a45.352,45.352,0,0,1-4.7-14.123c-.956-6.08.206-11.591,4.253-16.429A62.456,62.456,0,0,0,671.309,2h39.027a37.7,37.7,0,0,0,3.029,2.616c3.719,2.605,7.693,4.886,11.2,7.747,6.481,5.291,11.037,11.913,12.155,20.442.351,2.676.383,5.4.5,8.1.3,7.138.37,14.281,1.737,21.346,3.278,16.938,11.586,30.424,26.7,39.268,10.605,6.206,22.247,8.293,34.348,8.091,15.209-.255,29.806-3.586,44.006-8.982,22.5-8.551,42.14-21.062,57.338-40.093a136.368,136.368,0,0,1,12.129-12.661A77.092,77.092,0,0,1,930.153,35.55a32.928,32.928,0,0,1,21.323-3.83,120.313,120.313,0,0,1,26.193,7.355V49.483c-2.4-1-4.742-2.154-7.2-2.961-4.006-1.316-8.046-2.574-12.144-3.552-7.171-1.712-13.969-.385-20.435,3.021a73.66,73.66,0,0,0-16.606,12.433c-5.31,5.109-10.435,10.411-15.633,15.635a125.374,125.374,0,0,1-24.4,19.342,192.762,192.762,0,0,1-54.885,22.285c-15.8,3.746-31.823,5.42-48.036,2.753a75.164,75.164,0,0,1-38.534-18.25c-6.859-6.1-11.618-13.486-13.273-22.554-1.321-7.236-2.289-14.545-3.146-21.853-.845-7.206-.962-14.513-2.093-21.666-2.257-14.273-10.735-23.32-24.591-27.228A23.749,23.749,0,0,0,678.1,8.751c-5.853,3.256-8.674,8.24-8.307,15a35.306,35.306,0,0,0,3.87,13.326,100.533,100.533,0,0,0,11.454,18.1c4.905,6.344,10.105,12.462,14.949,18.852,3.265,4.308,6.3,8.814,9.132,13.419a29.073,29.073,0,0,1,4.465,13.792c.826,16.169-3.75,30.535-15.416,41.977a298.059,298.059,0,0,1-22.553,19.627A207.935,207.935,0,0,1,657.8,175.221a48.105,48.105,0,0,1-14.031,5.9,19.955,19.955,0,0,1-15.428-1.741A94.05,94.05,0,0,1,618.7,172.8c-2.855-2.147-5.466-4.614-8.264-6.84a23.775,23.775,0,0,0-9.215-4.645c-5.193-1.266-10.116-.288-14.913,1.708a52.784,52.784,0,0,0-15.675,10.327c-6.735,6.278-13.277,12.77-19.747,19.322-7.234,7.327-14.161,14.96-21.464,22.216-13.75,13.661-28.714,25.76-46.095,34.61-29.126,14.831-60.209,22.321-92.68,24.2-10.693.62-21.458.552-32.167.167a248.136,248.136,0,0,1-25.851-2.483c-11.253-1.6-22.4-3.959-33.65-5.561a98.6,98.6,0,0,0-39.035,2.026c-7.962,2.068-15.947,4.121-24.019,5.681-11.183,2.161-20.838-.911-28.351-9.724a63.524,63.524,0,0,1-5.9-7.745c-4.2-6.824-8.085-13.844-12.248-20.693-4.386-7.218-8.576-14.6-13.507-21.433-11.512-15.954-25.974-29.036-41.427-41.072a113.594,113.594,0,0,0-38.867-19.784c-4.269-1.222-8.536-2.481-12.861-3.474a107.92,107.92,0,0,1-33.79-13.931c-2.653-1.676-5.465-3.1-8.208-4.633a31.238,31.238,0,0,0-28.149-1.888C9.223,130.507,5.546,131.134,2,132.089Z" fill="#49184c"/>
    <path id="Caminho_7" data-name="Caminho 7" d="M977.67,1349.733c-3.722.7-7.419,1.6-11.17,2.047-9.051,1.078-17.143-1.481-24.387-6.928a74,74,0,0,1-13.657-13.859c-5.472-7-10.668-14.225-16.255-21.132-4.834-5.976-9.824-11.861-15.151-17.4a49.6,49.6,0,0,0-29.444-15.323c-9.047-1.26-17.94-.2-26.728,2.083a139.464,139.464,0,0,0-26.116,9.84c-7.69,3.757-15.336,7.617-22.859,11.7a99.062,99.062,0,0,0-10.568,6.97c-3.865,2.79-7.622,5.737-11.336,8.727-17.075,13.747-36.746,21.87-57.884,26.836a124.856,124.856,0,0,1-38.413,2.994,156.269,156.269,0,0,1-38.935-8.538c-4.3-1.484-8.576-3.046-12.887-4.5-2.256-.759-4.545-1.447-6.857-2.009a18.815,18.815,0,0,0-14.728,2.134,78.953,78.953,0,0,0-8.033,5.512,34.978,34.978,0,0,1-21.657,7.561,439.769,439.769,0,0,1-47.088-1.659c-16.212-1.317-32.446-1.912-48.722-1.646-8.658.142-17.346.049-25.984-.5a82.206,82.206,0,0,1-45.03-16.792,174.438,174.438,0,0,1-21.551-19.744c-4.25-4.483-8.472-9-12.863-13.341-4.122-4.076-6.393-3.773-9.333,1.281a94.593,94.593,0,0,0-4.852,9.914c-5.71,13.149-12.139,25.892-20.52,37.583-14.41,20.1-32.554,35.58-55.605,44.972A109.338,109.338,0,0,1,232,1394.45a119.6,119.6,0,0,1-35.211-7.156,100.233,100.233,0,0,1-35.673-22.671c-4.52-4.369-8.844-8.942-13.414-13.257a90.7,90.7,0,0,0-8.969-7.481,18.053,18.053,0,0,0-13.231-3.507q-18.5,2.554-36.931,5.643a42.582,42.582,0,0,0-9.519,3.2,23.234,23.234,0,0,0-5.72,3.645,9.85,9.85,0,0,0-3.207,11.163,27.216,27.216,0,0,0,3.715,7.518,110.45,110.45,0,0,0,8.193,9.649c3.076,3.352,6.4,6.478,9.469,9.835a20.571,20.571,0,0,1,3.278,4.809c1.386,2.848.621,5.285-2.336,6.4a41.513,41.513,0,0,1-9.107,2.144c-8.107,1.081-16.248.422-24.344-.2a175.176,175.176,0,0,1-40.123-7.616c-5.668-1.816-11.251-3.9-16.874-5.858v-3.252c.831.235,1.682.416,2.491.713a174.693,174.693,0,0,0,33.566,8.77,119.3,119.3,0,0,0,24.277,1.632,25.48,25.48,0,0,0,4.815-.643c4.883-1.205,5.771-3.667,2.665-7.706a48.947,48.947,0,0,0-5.315-5.691c-4.261-4.011-8.8-7.741-12.893-11.912-4.314-4.4-8.377-9.061-12.286-13.825a27.2,27.2,0,0,1-5.149-10.428c-1.738-6.617.2-12.074,5.948-15.8a29.881,29.881,0,0,1,7.576-3.644,108.448,108.448,0,0,1,13.9-3.242,248.517,248.517,0,0,1,35.636-2.622,61.188,61.188,0,0,0,21.342-3.623,48.959,48.959,0,0,1,6.56-1.855c6.1-1.4,11.459.072,15.684,4.709a81.394,81.394,0,0,1,6.787,8.693c3.317,4.818,6.35,9.83,9.625,14.678,5.914,8.754,12.575,16.917,20.957,23.407,23.17,17.939,49.608,23.53,78.163,19.3,23.164-3.427,42.7-14.464,59.242-30.842,15.061-14.912,25.566-32.706,32.4-52.686,2.38-6.962,4.223-14.106,6.514-21.1a37.939,37.939,0,0,1,3.7-8.249c2.1-3.368,4.958-4.05,8.39-2a56.281,56.281,0,0,1,9.163,6.661c3.59,3.281,6.754,7.026,10.128,10.546,4.8,5.006,9.44,10.178,14.466,14.944,12.065,11.44,26.15,19.172,42.6,22.3,11.461,2.176,23.03,2.48,34.641,1.942,16.043-.744,32.063-.282,48.092.551,11.681.607,23.383.847,35.078,1.169a21.462,21.462,0,0,0,14.651-5.318c2.326-1.941,4.484-4.083,6.71-6.143,2.306-2.134,4.547-4.34,6.913-6.4,5.472-4.775,11.578-5.7,18.1-2.461,3.677,1.828,7.178,4.011,10.749,6.051,6.58,3.759,12.946,7.963,19.767,11.216,21.354,10.186,43.767,13.489,67.1,8.862a128.513,128.513,0,0,0,60.269-29.6c6.539-5.689,12.845-11.647,19.228-17.514a68.261,68.261,0,0,1,18.5-12.5c4.059-1.8,8-3.855,12.035-5.721,11.528-5.336,23.294-10.007,35.825-12.464,9.564-1.876,19.139-2.28,28.716-.079,11.338,2.606,20.7,8.628,28.9,16.683,6.825,6.708,12.621,14.285,18.528,21.775,3.69,4.679,7.407,9.343,11.277,13.872a60.8,60.8,0,0,0,13.549,12.071,38.452,38.452,0,0,0,26.1,5.644Z" transform="translate(0 -847.539)" fill="#49184c"/>
    <path id="Caminho_8" data-name="Caminho 8" d="M418.286,2c1.962,1.532,3.935,3.051,5.882,4.6a34.362,34.362,0,0,1,2.965,2.531c1.836,1.84,1.73,3.033-.614,4.3a43.607,43.607,0,0,1-6.547,2.84c-10.346,3.545-20.683,7.126-31.1,10.459-17.228,5.511-34.536,10.771-51.759,16.3-4.421,1.418-8.674,3.379-12.958,5.2a6.357,6.357,0,0,0-3.807,3.309,9.007,9.007,0,0,0,2.271,1.133,37.569,37.569,0,0,0,6.124.673c23.087-.005,46.176.139,69.258-.2,14.088-.209,28.081-2.074,42.037-3.993,12.23-1.682,24.423-3.65,36.676-5.135a44.96,44.96,0,0,1,12.27.36c6.06.958,8.543,4.99,6.814,10.876a56.042,56.042,0,0,1-4.391,10.079c-1.861,3.543-4.206,6.827-6.149,10.331-4.226,7.623-3.4,11.377,3.552,16.712,2.836,2.178,5.788,4.205,8.593,6.42,8.423,6.65,12.595,15.53,13.331,26.1,1.068,15.349-3.269,29.371-10.918,42.458-10.068,17.227-24.561,29.853-41.9,39.34a124.247,124.247,0,0,1-47.473,14.691c-30.478,3.1-59.612-1.7-87.015-15.561a116.8,116.8,0,0,1-35.345-27.72,80.539,80.539,0,0,1-19.372-41.525c-.4-2.567-.927-5.115-1.456-7.66-1.518-7.3-5.907-11.975-13.128-13.723-4.516-1.093-9.155-1.667-13.7-2.64a55.156,55.156,0,0,1-9.056-2.469c-5.421-2.178-7.753-6.249-7.329-12.081.126-1.724.464-3.433.727-5.146.181-1.178.474-2.343.585-3.526.287-3.068-.875-4.36-3.95-3.869a39.039,39.039,0,0,0-7.812,2.129c-8.794,3.389-17.5,7.006-26.294,10.395-4.24,1.634-8.563,3.078-12.915,4.391-10.813,3.263-20.718,1.259-29.17-6.147A214.892,214.892,0,0,1,129.3,80.445c-8.022-8.668-15.648-17.7-23.664-26.377a155.958,155.958,0,0,0-25-22.195C67.506,22.684,52.876,18,36.963,16.82A136.007,136.007,0,0,0,4.581,18.167,19.675,19.675,0,0,1,2,18.261V13.708c.746-.12,1.5-.216,2.238-.364A115.557,115.557,0,0,1,62,16.314c12.379,3.849,23.328,10.445,33.348,18.5,11.063,8.889,21.811,18.17,32.712,27.26,6.33,5.278,12.783,10.393,19.974,14.484a51.073,51.073,0,0,0,16.01,6.115c10.076,1.859,19.642-.019,28.8-4.2,5.317-2.424,10.527-5.105,15.668-7.888A248.063,248.063,0,0,1,255.38,50.663c14.829-4.443,29.65-8.958,44.634-12.822,24.634-6.352,49.4-12.181,74.1-18.279q8.827-2.179,17.57-4.693c2.011-.575,4.241-.995,5.748-3.354a23.685,23.685,0,0,0-2.7-2.6c-2.57-1.8-5.252-3.45-7.849-5.218A14.178,14.178,0,0,1,385.113,2Zm41.73,56.049c-5.215.568-9.739,1.047-14.26,1.554-13.992,1.57-27.96,3.421-41.981,4.657-15.863,1.4-31.777,2.223-47.665,3.344a314.043,314.043,0,0,0-43.751,6c-11.671,2.5-23.182,5.593-34.025,10.69a49.908,49.908,0,0,0-9.43,5.682c-5.594,4.362-5.49,8.157-.072,12.667,1.915,1.594,3.916,3.09,5.782,4.738a13.591,13.591,0,0,1,4.733,12.528c-.34,2.684-.768,5.36-1.26,8.021A56.7,56.7,0,0,0,277.524,147c1.349,8.756,5.041,16.528,10.072,23.712,10.726,15.314,25,26.457,41.856,34.088a148.655,148.655,0,0,0,84.037,11.973,119.757,119.757,0,0,0,57.916-24.642c12.386-9.738,22.324-21.473,28.507-36.093,4.189-9.907,6.562-20.173,4.913-31.036-1.076-7.093-3.855-13.4-9.5-17.961a56.154,56.154,0,0,0-9.9-6.13c-3.463-1.761-7.217-2.941-10.782-4.514a52.4,52.4,0,0,1-7.518-3.8c-4.184-2.726-4.966-5.924-2.627-10.317,1.319-2.477,3.077-4.716,4.509-7.137a52.307,52.307,0,0,0,4.145-7.7c1.812-4.737-.062-7.888-5.072-8.736C465.213,58.222,462.266,58.219,460.015,58.049Z" fill="#49184c"/>
    <path id="Caminho_9" data-name="Caminho 9" d="M977.67,1476.577c-3.875.969-7.728,2.046-11.631,2.883a59.392,59.392,0,0,1-19.691,1.258,44.11,44.11,0,0,1-25.667-12.175,91.671,91.671,0,0,1-12.361-15.042c-3.737-5.452-7.216-11.1-11.214-16.348a155.632,155.632,0,0,0-12.829-15.073c-7.393-7.5-16.29-12.533-26.867-14.132a55.148,55.148,0,0,0-23.784,1.969,99.708,99.708,0,0,0-24.905,11c-9.2,5.7-18.132,11.845-27.1,17.922-4.123,2.8-8.026,5.913-12.066,8.832-2.547,1.84-5.155,3.6-7.748,5.37a36.427,36.427,0,0,1-20.1,6.574c-22.81.542-45.317,3.946-67.835,7.245-7.716,1.13-15.408,2.656-23.168,3.205a201.508,201.508,0,0,1-26.622.376c-24.777-1.538-49.585-2.115-74.38-3.1-13.745-.544-27.464-1.77-41.189-2.768a398.862,398.862,0,0,0-51.651-.638,157.59,157.59,0,0,1-27.92-.5,78.845,78.845,0,0,1-30.313-10.13c-7.591-4.4-14.949-9.2-22.508-13.65-4.567-2.69-9.34-5.028-13.989-7.583-3.748-2.059-7.128-1.393-10.161,1.346-3.054,2.757-6.019,5.615-8.967,8.485-6.519,6.349-12.76,13.008-19.549,19.053-18.8,16.737-40.368,28.278-65.117,33.527a153.311,153.311,0,0,1-45.261,2.472c-10.465-.906-20.9-2.187-31.349-3.237-2.584-.26-5.192-.29-7.79-.389a22.38,22.38,0,0,0-14.1,3.973c-7.287,5.042-15.678,7.288-24.342,8.447-16.59,2.218-33.285,2.437-49.968,1.836-27.765-1-54.406-7.353-80.144-17.683A32.556,32.556,0,0,0,2,1488.935v-2.6a231.7,231.7,0,0,0,50.072,14.643,233.193,233.193,0,0,0,45.991,2.8c7.343-.243,14.69-.986,21.98-1.93a33.465,33.465,0,0,0,9.228-2.956c4.637-2.093,6.816-5.872,6.209-11.036-.278-2.365-.731-4.71-1.033-7.074-1.017-7.961,2.491-11.442,10.328-9.661a76.325,76.325,0,0,1,13.167,4.547,239.2,239.2,0,0,0,29.195,10.921,164.232,164.232,0,0,0,43.88,6.676c33.049.231,61.927-10.946,86.938-32.388,10.255-8.792,18.987-18.988,27.251-29.615,3.126-4.02,6.267-8.031,9.512-11.956a32.559,32.559,0,0,1,4.192-4.056,4.771,4.771,0,0,1,6.283-.3c3.828,2.654,7.679,5.277,11.452,8.008,6.671,4.829,13.189,9.874,19.955,14.563a85.111,85.111,0,0,0,29.057,13.394,112.892,112.892,0,0,0,25.155,2.731c5.849.04,11.7-.192,17.55-.393,18.454-.635,36.812.89,55.189,2.216,13.181.952,26.388,1.715,39.6,2.062,13.539.356,27.094.153,40.642.1,9.684-.039,19.219-1.548,28.694-3.383a140.306,140.306,0,0,1,25.533-2.356c9.534-.084,19.075-.1,28.6-.5,15.643-.656,30.968-3.6,46.209-7.005,1.586-.354,3.162-.762,4.759-1.053a85.719,85.719,0,0,0,28.39-10.867c8.861-5.238,17.66-10.582,26.471-15.9,9.747-5.888,19.637-11.507,30.193-15.846,9.279-3.813,18.806-6.618,28.946-6.754a49.354,49.354,0,0,1,27.968,8.193,68.712,68.712,0,0,1,16.163,14.485c5.114,6.306,9.857,12.913,14.739,19.405,4.3,5.713,8.516,11.484,12.867,17.154a41.139,41.139,0,0,0,4.266,4.459c10.942,10.51,23.939,13.333,38.481,10.131,3.169-.7,6.274-1.687,9.415-2.516.715-.189,1.458-.271,2.188-.4Z" transform="translate(0 -939.259)" fill="#49184c"/>
    <path id="Caminho_10" data-name="Caminho 10" d="M2,243.235c6.813.318,13.282-1.792,19.893-2.872a41.093,41.093,0,0,1,25.337,3.415c2.627,1.284,5.294,2.5,7.843,3.931a126.278,126.278,0,0,0,32,12.452c4.836,1.181,9.6,2.65,14.371,4.1,18.205,5.53,33.648,15.688,47.688,28.292,14.784,13.271,26.243,29.036,35.771,46.356,4.123,7.494,8.518,14.847,13.026,22.118A49.358,49.358,0,0,0,208.9,373.8c8.791,7.024,18.769,9.8,29.84,7.535,6.569-1.341,13.021-3.256,19.521-4.931,13.4-3.455,26.957-3.739,40.637-2.178,21,2.4,42.031,4.4,63.219,3.136,11.783-.7,23.616-.908,35.342-2.144,32.142-3.388,63.06-11.308,91.786-26.573,14.159-7.524,26.741-17.3,38.484-28.126,10.915-10.063,21.467-20.52,32.368-30.6A153.568,153.568,0,0,1,575.185,277.6a50.818,50.818,0,0,1,11.477-5.949,18.93,18.93,0,0,1,19.3,3.067c2.9,2.271,5.562,4.833,8.432,7.139,2.952,2.371,5.92,4.75,9.07,6.839a19.236,19.236,0,0,0,18.313,2.092,78.415,78.415,0,0,0,12.4-5.609,207.43,207.43,0,0,0,19.174-12.791c9.982-7.634,19.62-15.717,29.383-23.637a65.5,65.5,0,0,0,15.132-17.7c1.6-2.7,3.171-5.43,4.888-8.06a48.065,48.065,0,0,1,4.083-5.454,10.969,10.969,0,0,1,10.812-3.831c3.5.674,6.972,1.562,10.4,2.561,7.381,2.154,14.717,4.407,22.344,5.637a123.987,123.987,0,0,0,29.824.915c27.723-2.239,53.585-10.865,78.162-23.582a146.625,146.625,0,0,0,34.44-25.348c5.3-5.122,10.574-10.287,16.192-15.04a88.849,88.849,0,0,1,12.51-8.691,25.751,25.751,0,0,1,21.945-2.2c4.808,1.614,9.471,3.66,14.2,5.513v8.456c-3.7-1.792-7.321-3.754-11.1-5.339-7.237-3.032-14.385-2.464-21.347,1.064a74.576,74.576,0,0,0-15.2,10.523c-6.291,5.481-12.414,11.157-18.74,16.6-16.737,14.392-35.947,24.361-56.633,31.8a235.585,235.585,0,0,1-66.518,14.041c-10.256.584-20.576.029-30.868-.03-1.949-.011-3.9-.175-5.846-.173-8.178.007-15.395,2.62-21.134,8.508-9.738,9.99-20.966,18.122-32.1,26.4-9.218,6.852-18.247,13.959-27.4,20.9a148.72,148.72,0,0,1-24.969,15.776,67.788,67.788,0,0,1-9.647,3.808,19.362,19.362,0,0,1-17.116-2.453c-3.843-2.6-7.371-5.674-10.984-8.605-2.523-2.047-4.867-4.32-7.441-6.3-4.993-3.833-10.6-4.64-16.623-2.978a39.334,39.334,0,0,0-13.578,6.821c-7.461,5.751-14.761,11.716-21.994,17.754-9.483,7.916-18.718,16.13-28.266,23.964-21.021,17.245-45.078,28.561-71.087,36.049a415.328,415.328,0,0,1-55.882,11.814c-14.469,2.082-28.947,4.133-43.363,6.545a105.261,105.261,0,0,1-35.234-.424c-8.108-1.369-16.253-2.629-24.43-3.438-12.328-1.219-24.414.43-36.275,3.981-4.764,1.426-9.6,2.66-14.45,3.741-4.516,1.006-9.052.49-13.531-.525-11.291-2.558-20.771-8.135-27.8-17.382-3.86-5.077-7.361-10.448-10.733-15.869-4.691-7.542-8.99-15.327-13.672-22.876a144.686,144.686,0,0,0-26.546-31.864c-14.85-13.276-32.1-22.026-51.224-27.146A207.783,207.783,0,0,1,58.7,263.189a51.034,51.034,0,0,0-26.553-4.857c-4.106.309-8.2.752-12.312.99-5.942.344-11.891.556-17.838.825Z" transform="translate(0 -97.486)" fill="#49184c"/>
    <path id="Caminho_11" data-name="Caminho 11" d="M2,800.073c23.715,1.612,47.45.339,71.175.447,19.5.088,37.975,4.48,55.966,11.6,10.27,4.065,20.614,7.942,30.935,11.877a321.537,321.537,0,0,0,55.374,15.13,125.949,125.949,0,0,1,27.933,8.383,74.792,74.792,0,0,1,33.566,28.741,199.423,199.423,0,0,1,15.12,29.813,72.184,72.184,0,0,0,3.743,7.922c2.335,4.065,5.192,4.457,8.25.965a31.606,31.606,0,0,0,4.951-7.566c2.605-5.706,4.951-11.541,7.153-17.417,3.651-9.741,7.193-19.529,12.51-28.518a58.322,58.322,0,0,1,6.419-8.94c3.46-3.912,8-5.19,13.233-4.572,14.646,1.728,29.032,4.863,43.463,7.767,12.639,2.543,25.334,4.823,38.235,5.442,21.849,1.05,43.327-1.014,63.851-9.092a203.351,203.351,0,0,0,20.548-9.694,295.465,295.465,0,0,1,30.515-14.442,136.513,136.513,0,0,0,18.542-9.357c11.615-6.742,23.2-13.568,34.495-20.824a451.752,451.752,0,0,1,68.145-36.355c14.782-6.253,28.852-13.938,43-21.485,19.243-10.268,39.131-19.137,60.13-25.157,9.969-2.857,20.209-4.791,30.365-6.962,7.195-1.537,14.425-2.964,21.692-4.1a73.623,73.623,0,0,1,39.256,4.371,205.845,205.845,0,0,1,22.4,10.335c16.247,8.9,32.311,18.132,48.325,27.442a319.62,319.62,0,0,1,37.567,26.2c2.874,2.276,5.877,4.389,8.82,6.577v15.611c-1.212-.868-2.476-1.674-3.628-2.615-7.132-5.832-14.041-11.958-21.409-17.473-7.623-5.706-15.536-11.062-23.587-16.152-11.813-7.469-23.881-14.533-35.8-21.831-11.194-6.852-22.552-13.372-34.734-18.358-11.8-4.831-24.038-7.437-36.792-6.6-8.2.541-16.366,1.712-24.536,2.693-27.839,3.344-53.559,13.325-78.176,26.09q-32.486,16.844-66.054,31.267c-17.79,7.61-34.4,17.391-50.349,28.315q-22.665,15.524-45.33,31.046a127.261,127.261,0,0,1-22.731,12.507c-6.877,2.882-13.466,6.483-20.065,9.987-12.717,6.753-25.955,11.96-40.229,14.31a159.478,159.478,0,0,1-36.92,1.714c-13.231-.9-26.188-3.382-39.094-6.263q-19.176-4.28-38.383-8.424c-3.065-.659-6.185-1.111-9.3-1.464a15.53,15.53,0,0,0-14.408,5.893,67.753,67.753,0,0,0-6.862,10.219c-4.839,8.81-7.314,18.5-9.808,28.147-2.411,9.334-4.722,18.7-8.563,27.584a69.569,69.569,0,0,1-11.464,18.792,35.11,35.11,0,0,1-9.928,8.293,20.717,20.717,0,0,1-6.094,2.066c-2.555.417-4.188-1.065-4.333-3.659a18.935,18.935,0,0,1,.415-4.831c1.118-5.408,2.492-10.766,3.517-16.191,2.291-12.122.822-23.933-3.267-35.493-6.808-19.243-18.63-34.079-37.486-42.752a89.724,89.724,0,0,0-21-6.7c-9.468-1.776-19.05-2.989-28.464-5q-22.388-4.783-44.6-10.363c-10.6-2.672-21.007-6.1-31.554-8.988a136.776,136.776,0,0,0-35.984-4.827c-15.5-.028-31,.371-46.5.383-10.074.008-20.148-.346-30.222-.534-.648-.012-1.3.015-1.945.024Z" transform="translate(0 -472.849)" fill="#49184c"/>
    <path id="Caminho_12" data-name="Caminho 12" d="M2,633.312c9.1.27,18.191.633,27.29.787,10.943.186,21.891.127,32.835.3a94.875,94.875,0,0,1,27.428,4.873c5.983,1.913,11.933,3.935,17.864,6A120.345,120.345,0,0,1,151.1,672.164c5.025,4.779,10.039,9.6,15.392,13.993A134.333,134.333,0,0,0,180.8,696.266a118.781,118.781,0,0,1,16.184,11.407,96.9,96.9,0,0,0,31.266,18.2c9.962,3.649,19.843,7.522,29.7,11.437a158.061,158.061,0,0,1,24.574,12.538,64.2,64.2,0,0,0,8.86,4.755c6.107,2.546,10.664.48,12.839-5.78a28.6,28.6,0,0,0,1.48-7.612c.23-3.886.015-7.8.014-11.7,0-2.275-.11-4.564.1-6.821.452-4.8,3.034-7.237,7.872-7.327a29.9,29.9,0,0,1,6.767.688,394.273,394.273,0,0,0,60.173,8c22.356,1.281,44.642.648,66.524-4.908a101.055,101.055,0,0,0,19.232-6.913,62.341,62.341,0,0,0,22.149-17.712c2.481-3.15,4.879-6.369,7.435-9.457a67.888,67.888,0,0,1,29.257-20.405c10.8-4.022,21.71-3.385,32.611-.444,4.287,1.156,8.529,2.483,12.776,3.78A42.177,42.177,0,0,0,600.2,666.7c6.867-2.916,13.642-6.123,20.208-9.663,31.373-16.913,62.785-33.75,93.585-51.712a346.759,346.759,0,0,1,57.687-26.809c6.494-2.331,12.668-5.6,18.871-8.682,7.284-3.616,14.58-7.144,22.359-9.618a68.064,68.064,0,0,1,42.193-.068c10.766,3.41,21.056,7.988,31.369,12.519,15.073,6.622,30,13.63,45.722,18.621,11.35,3.6,22.861,6.7,34.294,10.042,3.736,1.092,7.455,2.241,11.182,3.364V615.75c-12.949-5.88-26.774-9.233-40.153-13.872-17.336-6.011-33.809-14.011-50.486-21.553-11.75-5.314-23.647-10.239-36.176-13.508a66.819,66.819,0,0,0-45.087,3.684c-4.848,2.142-9.569,4.6-14.237,7.117a145.4,145.4,0,0,1-20.791,9.153c-21.21,7.476-41.422,17.2-61.017,28.14q-46.828,26.139-94.3,51.076c-5.658,2.96-11.453,5.667-17.247,8.355a54.173,54.173,0,0,1-32.978,4.238,73,73,0,0,0-26.836.176,59.564,59.564,0,0,0-26.093,11.825c-3.9,3.1-7.725,6.317-11.351,9.728-16.543,15.559-36.488,23.723-58.6,27.321-18.827,3.064-37.755,3.256-56.721,1.962-18.814-1.283-37.493-3.748-56.092-6.838a50.45,50.45,0,0,0-6.756-.854c-5.843-.169-8.91,2.325-9.793,8.153-.632,4.169-.709,8.42-1.3,12.6a57.008,57.008,0,0,1-2.193,10.449,24.006,24.006,0,0,1-4.2,7.228c-2.851,3.478-6.685,4.213-10.873,2.561a25.856,25.856,0,0,1-4.043-2.055,39.456,39.456,0,0,1-4.529-3.158c-13.8-11.44-29.731-18.9-46.442-24.9-6.623-2.379-13.28-4.663-19.882-7.1a108.272,108.272,0,0,1-24.844-13.313c-7.526-5.294-15.3-10.229-22.889-15.44-4.64-3.188-9.175-6.536-13.666-9.933-3.023-2.286-5.953-4.706-8.81-7.2-20.063-17.5-43.931-27.007-69.437-33.019-8.6-2.027-17.419-2.048-26.193-2.147-13.762-.155-27.526-.105-41.288-.239-3.459-.034-6.915-.437-10.373-.67Z" transform="translate(0 -374.385)" fill="#49184c"/>
    <path id="Caminho_13" data-name="Caminho 13" d="M977.67,250.259a58.939,58.939,0,0,0-9.265-11.6c-6.047-5.745-12.865-7.059-20.281-3.319a112.554,112.554,0,0,0-13.011,7.93c-4.1,2.823-7.981,5.977-11.839,9.131a190.066,190.066,0,0,1-76.369,38.2c-13.36,3.243-26.627,6.871-39.946,10.285a199.8,199.8,0,0,0-29.142,10.066q-10.449,4.481-21.055,8.6a291.348,291.348,0,0,0-62.487,33.715c-5.58,3.933-11.115,7.931-16.664,11.909a275.957,275.957,0,0,1-41.685,24.534,71.29,71.29,0,0,1-18.664,6.474,22.066,22.066,0,0,1-15.643-2.809c-3.234-1.958-6.26-4.268-9.328-6.491-2.719-1.971-5.332-4.088-8.055-6.053a18.857,18.857,0,0,0-18.21-2.636,70.792,70.792,0,0,0-11.546,5.133c-6,3.452-11.8,7.279-17.59,11.086-6.881,4.523-13.637,9.236-20.5,13.787-17.98,11.924-37.352,20.99-57.665,28.164-8.472,2.993-16.85,6.26-25.216,9.544a73.645,73.645,0,0,0-19.951,11.44c-10.92,8.951-23.712,12.661-37.449,14.09-20,2.079-39.542-.189-58.865-5.486a198.323,198.323,0,0,0-20.01-4.211c-10.547-1.748-20.958-.456-31.2,2.312a46.748,46.748,0,0,0-7.638,2.676,12.349,12.349,0,0,0-7.546,10.239c-.024.215-.069.428-.107.641-.832,4.666-2.7,5.821-6.953,3.774a28.868,28.868,0,0,1-6.963-4.7A76.122,76.122,0,0,0,213.5,462.16c-2.506-1.015-4.934-2.228-7.384-3.381a61.079,61.079,0,0,1-23.658-19.35c-3.395-4.631-6.7-9.331-10.025-14.01-3.391-4.768-6.72-9.581-10.154-14.318a109.294,109.294,0,0,0-57.038-41.037c-11.568-3.65-23.111-7.374-34.667-11.061A71.227,71.227,0,0,0,50.1,355.745c-4.009-.073-8.021-.064-12.03-.014-12.024.15-24.049.908-36.07-.1V343.924a46.639,46.639,0,0,0,5.472.569c9.643-.093,19.284-.29,28.925-.448,7.477-.123,14.973-.42,22.354,1.111a91.289,91.289,0,0,1,9.4,2.538c11.441,3.682,22.834,7.513,34.282,11.173,14.362,4.591,27.843,10.842,39.637,20.411A115.01,115.01,0,0,1,163.328,402c4.963,6.969,9.542,14.21,14.422,21.239,3.952,5.691,7.981,11.337,12.2,16.832a43.129,43.129,0,0,0,11.3,10.191A86.377,86.377,0,0,0,235.3,463.21c4.725.676,9.292-.082,13.819-1.235,6.189-1.577,12.325-3.368,18.525-4.9a77.217,77.217,0,0,1,34.8-.3c9.639,2.028,19.184,4.512,28.835,6.48a99.383,99.383,0,0,0,46.04-1,52.774,52.774,0,0,0,12.95-5.1c14.73-8.607,30.682-14.02,46.863-19,10.759-3.308,21.482-6.771,32.081-10.557,18.9-6.751,36.228-16.539,52.537-28.161,8.735-6.225,17.3-12.686,26.11-18.808a182.305,182.305,0,0,1,16.249-10.14,50.523,50.523,0,0,1,10.6-3.951,15.447,15.447,0,0,1,13.04,2.326c2.525,1.664,4.855,3.629,7.241,5.5,3.24,2.538,6.371,5.222,9.691,7.651a23.34,23.34,0,0,0,20.359,3.826,77.021,77.021,0,0,0,15.754-6,234.383,234.383,0,0,0,36.136-22.41c10.919-8.2,21.962-16.206,33.458-23.6a275.886,275.886,0,0,1,93.7-38.042c15.582-3.262,30.986-7.213,46.3-11.6a194.036,194.036,0,0,0,71.1-37.378c4.673-3.869,9.348-7.758,14.26-11.309a94.7,94.7,0,0,1,12.394-7.691c7.5-3.82,14.894-3.253,21.737,1.8,2.69,1.988,5.2,4.217,7.795,6.337Z" transform="translate(0 -150.692)" fill="#49184c"/>
    <path id="Caminho_14" data-name="Caminho 14" d="M1234,1936.276c3.115-.323,6.232-.633,9.346-.97,10.516-1.137,20.6-4.108,30.631-7.28,17.378-5.5,34.912-10.4,52.887-13.495,20.957-3.612,42.016-6.143,63.357-6.031,18.968.1,37.949.039,56.9-.571,15.374-.494,30.735-1.7,46.068-2.982,11.694-.978,23.157.187,34.585,2.373q37.187,7.113,74.365,14.266a108.238,108.238,0,0,0,23.612,2.01c12.453-.376,24.916-.9,37.332-1.9a224.956,224.956,0,0,1,47.042,1.233,334.03,334.03,0,0,0,35.3,2.949,212.411,212.411,0,0,0,62.614-8.256c.311-.088.633-.14.95-.208v12.358c-5.386,1.445-10.784,2.843-16.15,4.36-2.029.573-3.979,1.422-5.965,2.145H1608.657c-1.333-.418-2.648-.912-4-1.242-25.881-6.306-52.049-11.148-78.313-15.547a150.269,150.269,0,0,0-44.3-.977c-10.841,1.394-21.738,2.384-32.625,3.384-18.325,1.683-36.675,3-54.88,5.929-16.992,2.73-34.08,4.866-51.122,7.294-2.011.286-4,.768-5.992,1.159Z" transform="translate(-831.325 -1283.829)" fill="#49184c"/>
    <path id="Caminho_15" data-name="Caminho 15" d="M2,871.081c1.833-.007,3.665-.009,5.5-.022q18.372-.131,36.744-.271c13.44-.12,26.881-.4,40.321-.379a213.05,213.05,0,0,1,39.694,4.294c6.9,1.318,13.945,1.88,20.927,2.772,11.173,1.426,22.342,2.884,33.522,4.249q13.22,1.615,26.464,3.033c10.355,1.123,20.594,2.652,30.423,6.379,30.17,11.438,41.235,40.7,38.936,62.707a49.586,49.586,0,0,1-11.665,27.407c-3.837,4.523-8.355,8.471-12.6,12.645-2.161,2.126-4.574,4.021-6.556,6.3-3.822,4.391-3.049,8.336,2,11.207a23.615,23.615,0,0,0,9.6,2.806c9.468.9,18.3-1.309,26.654-5.633a68.026,68.026,0,0,0,24.081-21.39c8.155-11.38,12.957-24.19,16-37.736,1.97-8.765,3.683-17.594,5.883-26.3a69.782,69.782,0,0,1,4.569-12.124,41.552,41.552,0,0,1,4.9-7.63c4.691-6.105,10.912-8.062,18.451-6.7,11.954,2.159,23.667,5.257,35.339,8.556,13.34,3.771,26.705,7.457,40.4,9.743,20.434,3.412,40.817,3.85,60.813-2.407,7.517-2.352,14.762-5.625,22.016-8.747,7.46-3.21,14.885-6.539,22.119-10.219a74.922,74.922,0,0,0,12.584-7.977c10.949-8.692,21.508-17.878,32.494-26.522,10.64-8.373,21.419-16.6,32.5-24.379,16.852-11.836,35.506-20.311,54.56-27.924a499.736,499.736,0,0,0,48.72-22.309A256.457,256.457,0,0,1,769.4,763.477c18.7-5.146,37.611-6.222,56.613-2.245a130.261,130.261,0,0,1,19.188,6.031,341.468,341.468,0,0,1,70.3,36.366c3.235,2.181,6.472,4.363,9.775,6.439a286.377,286.377,0,0,1,41.612,32.182c3.492,3.217,7.183,6.218,10.782,9.318v11.708c-7.473-6.752-14.856-13.606-22.437-20.235-15.95-13.947-33.279-26.056-51.119-37.406-11.975-7.62-24.946-13.161-39.061-15.406-6.509-1.035-13.142-1.3-19.721-1.889-4.962-.444-9.946-.7-14.886-1.315-4.24-.526-7.617-2.7-9.305-6.746-4.682-11.236-13.979-15.058-25.159-15.79-10.735-.7-21.157,1.285-31.42,4.188a215.5,215.5,0,0,0-41.293,16.439,540.764,540.764,0,0,1-56.088,24.915c-20.7,7.993-40.417,17.844-58.353,31.057a395.338,395.338,0,0,0-31.817,26.3c-8.409,7.668-16.636,15.536-25.016,23.236a114.5,114.5,0,0,1-8.979,7.494,36.1,36.1,0,0,1-6.981,4.108q-13.387,5.883-26.908,11.461A122.317,122.317,0,0,1,476,922.7a127.209,127.209,0,0,1-32.085-.563c-16.809-2.344-32.928-7.449-49.087-12.38-11.909-3.634-23.783-7.4-36.054-9.684-1.49-.277-2.973-.622-4.476-.793-5.847-.666-10.6,1.527-14.521,5.741a37.772,37.772,0,0,0-7.482,12.833c-2.511,6.732-3.807,13.763-5.069,20.8-1.971,10.992-4.207,21.909-8.473,32.3-6.225,15.158-15.352,28.124-28.824,37.712-11.946,8.5-25.2,12.891-39.978,11.958a40.879,40.879,0,0,1-17.462-4.616,30.6,30.6,0,0,1-7.469-5.615c-4.116-4.382-3.659-9.249,1.067-12.933a57.813,57.813,0,0,1,7.766-4.7c4.457-2.458,9.1-4.6,13.435-7.25a46.846,46.846,0,0,0,18.25-19.818c5.651-11.74,5.858-23.867,2.129-36.107-5.986-19.646-19.382-31.807-38.811-37.682a108.006,108.006,0,0,0-22.7-3.8c-15.657-1.267-31.312-2.569-46.976-3.739-4.751-.355-9.531-.462-14.3-.44-11.165.052-22.275-.133-33.4-1.639-16.141-2.185-32.426-2.118-48.7-1.828-19.833.353-39.667.594-59.5.89A12.809,12.809,0,0,0,2,881.488Z" transform="translate(0 -510.685)" fill="#49184c"/>
    <path id="Caminho_16" data-name="Caminho 16" d="M977.67,720.687c-6.734-4.734-13.336-9.67-20.227-14.163-20.9-13.629-42.834-25.463-65.127-36.616-9-4.5-18.162-8.723-27.462-12.559a71.44,71.44,0,0,0-28.515-5.6,57.613,57.613,0,0,0-16.036,2.325c-17.392,5.33-35.083,9.618-52.481,14.877-23.3,7.041-45.374,17.156-66.642,28.934q-25.462,14.1-51.9,26.211c-15.269,7.023-29.9,15.268-44.419,23.7-13.961,8.111-28.067,15.957-43.075,22.016a114.137,114.137,0,0,1-11.623,4.129,134.689,134.689,0,0,0-28.174,11.618c-5.035,2.759-10.048,5.56-15.111,8.266a152.505,152.505,0,0,1-54.319,16.753,190.693,190.693,0,0,1-49.586-.649c-13.612-1.927-27.169-4.239-40.765-6.282-6.315-.949-12.659-1.7-19-2.471-5.744-.7-10.217,1.546-13.268,6.364-1.907,3.011-3.55,6.2-5.152,9.39-3.353,6.678-6.521,13.449-9.927,20.1a73.493,73.493,0,0,1-5.484,9.2c-5.329,7.47-9.983,7.776-16.357,1.077-2.606-2.739-4.879-5.8-7.241-8.764-3.309-4.151-6.427-8.462-9.861-12.5-10.02-11.794-22.786-19.654-37.251-24.61-9.607-3.292-19.48-5.856-29.324-8.394a214.712,214.712,0,0,1-41.312-15.4c-14.383-7.078-28.81-14.072-43.336-20.847-11.314-5.277-23.016-9.6-35.4-11.608a123.923,123.923,0,0,0-16.472-1.658c-10.831-.288-21.673-.088-32.509-.22-12.025-.147-24.048-.445-36.072-.662-.744-.013-1.491.1-2.237.162V731.745c9.851.359,19.7.878,29.553,1.035,11.595.186,23.195.092,34.792.059,16.534-.047,32.278,3.725,47.3,10.334,9.407,4.139,18.579,8.852,27.671,13.657,12.452,6.581,24.744,13.467,37.076,20.275,13.091,7.227,27.135,11.919,41.5,15.787,10.153,2.733,20.175,5.837,29.732,10.312a91.251,91.251,0,0,1,31.03,23.152c3.179,3.7,6.47,7.3,9.816,10.847a28.077,28.077,0,0,0,4.448,3.778c4.378,3.027,8.172,2.8,12.025-.931a28.675,28.675,0,0,0,5.075-6.3c3.088-5.459,5.926-11.066,8.685-16.7,1.473-3.009,2.541-6.214,3.854-9.3a51.1,51.1,0,0,1,2.257-4.68c2.968-5.384,7.6-7.5,13.6-6.664,15.769,2.2,31.524,4.491,47.3,6.627,15.806,2.14,31.677,3.519,47.646,2.7,24.121-1.241,47.111-6.821,68.461-18.409q7.428-4.032,14.749-8.26a125.952,125.952,0,0,1,37.4-14.529c11.107-2.3,21.53-6.618,31.62-11.687,7.936-3.987,15.685-8.344,23.557-12.459,13.248-6.924,26.357-14.144,39.837-20.586,17.81-8.511,35.012-18.133,52.386-27.452A394.586,394.586,0,0,1,771.39,663.22c2.272-.715,4.557-1.405,6.869-1.974a217.5,217.5,0,0,0,29.216-9.874,141.889,141.889,0,0,1,17.834-6c10.454-2.667,20.868-1.422,31.131,1.5a138.12,138.12,0,0,1,24.768,9.747c23.667,12.022,47.352,24.019,70.8,36.453,8.871,4.7,17.124,10.572,25.659,15.91Z" transform="translate(0 -433.141)" fill="#49184c"/>
    <path id="Caminho_17" data-name="Caminho 17" d="M2,1873.731a18.543,18.543,0,0,0,2.561.271c13.319-.385,26.65-.547,39.951-1.268a509,509,0,0,1,54.253-.564c22.827,1.2,45.637,2.736,68.467,3.881,12.44.624,24.9.856,37.361,1.056,15.5.249,31,.585,46.378,2.611,24.822,3.269,49.433,7.654,73.6,14.359,7.855,2.18,15.449,4.757,22.623,8.784,10.548,5.92,22.231,8.39,34.129,9.861,4.289.53,8.6.9,12.9,1.336H329.175c-3.259-1.7-6.456-3.534-9.793-5.06a99.383,99.383,0,0,0-12-4.92,330.257,330.257,0,0,0-95.7-14.778c-14.306-.076-28.617-.291-42.913-.812-31.85-1.161-63.687-2.079-95.571-1.2-23.724.657-47.47.528-71.206.748Z" transform="translate(0 -1261.612)" fill="#49184c"/>
    <path id="Caminho_18" data-name="Caminho 18" d="M298.6,1970.943H2v-14.96c10.078,0,20.156-.023,30.234.007q92.652.279,185.3.582a263.456,263.456,0,0,1,69.276,9.966C290.842,1967.647,294.678,1969.457,298.6,1970.943Z" transform="translate(0 -1318.497)" fill="#49184c"/>
    <path id="Caminho_19" data-name="Caminho 19" d="M1749.47,2c-.454,2.332-.984,4.653-1.348,7-1.192,7.68.416,15.109,2.388,22.433,2.193,8.147,4.866,16.164,7.041,24.315a55.231,55.231,0,0,1,1.737,11.187c.281,5.207-1.51,7.555-6.366,9.271-7.6,2.686-15.4,4.558-23.5,4.448-11.909-.162-23.817-.5-35.722-.876-5.732-.18-11.476-.42-17.177-1a35.63,35.63,0,0,1-9.1-2.2c-4.863-1.874-7.307-5.752-7.027-10.945a56.217,56.217,0,0,1,1.558-9.253c.906-4.007,2.174-7.933,3.041-11.947a28.729,28.729,0,0,0-4.375-22.64c-1.31-1.988-2.88-3.813-4.092-5.855a50.348,50.348,0,0,1-4.142-8.012c-.925-2.49-2.916-3.961-4.385-5.919h39.027c2.968.429,5.925.963,8.906,1.264,5.167.522,10.375.7,15.51,1.422a26.331,26.331,0,0,1,7.3,2.519,3.913,3.913,0,0,1,1.816,2.742c.146,1.444-1.17,2.27-2.5,2.573a15.059,15.059,0,0,1-4.163.5c-3.78-.227-7.547-.669-11.323-.989-4.859-.412-9.732-.86-14.558.235-6.565,1.49-8.927,4.449-8.762,11.221.1,4,.538,8,.731,12,.225,4.653.273,9.315.533,13.965.361,6.456,3.572,10.987,9.531,13.534a28.177,28.177,0,0,0,2.732,1.036,56.573,56.573,0,0,0,26.333,1.694c12.492-2.073,22.772-16.725,20.641-27.607-.437-2.229-.7-4.492-1.088-6.73-.464-2.667-1.007-5.32-1.464-7.988-1.281-7.47-.724-14.676,3.154-21.389Z" transform="translate(-1110.683)" fill="#49184c"/>
    <path id="Caminho_20" data-name="Caminho 20" d="M1515.465,2a49.59,49.59,0,0,1,8.448,7.992c1.587,1.932,4.083,3.15,6.254,4.561,3.267,2.124,6.749,3.94,9.888,6.231,10.264,7.49,12.744,16.166,7.865,27.855-1.7,4.08-4,7.912-6.078,11.834-1.72,3.254-3.62,6.417-5.24,9.718a18.182,18.182,0,0,0-.44,15.426,58.483,58.483,0,0,0,7.759,13.85c3.724,4.843,7.108,5.833,12.811,3.738,2.74-1.007,5.394-2.258,8.056-3.465a90.507,90.507,0,0,1,45.638-7.569,175.061,175.061,0,0,1,24.358,3.856c7.945,1.8,15.856,2.274,23.741-.282.412-.134.832-.244,1.24-.388,6.41-2.273,9.154-5.839,9-12.663a39.039,39.039,0,0,0-1.588-10.55c-2.267-7.332-5.068-14.5-7.55-21.766-2.691-7.88-5.476-15.737-7.828-23.72a36.987,36.987,0,0,1-.377-21.159,32.672,32.672,0,0,0,.635-3.5h4.553c-.624,2.63-1.276,5.254-1.866,7.892-1.291,5.765-.411,11.43.96,17.036,2.249,9.2,6.132,17.79,9.815,26.465,3.129,7.372,6.155,14.8,8.941,22.3A42.6,42.6,0,0,1,1677,91.33c-.115,6.929-3.067,12-9.206,15.28-8.322,4.449-16.982,5.693-26.071,2.892-3-.924-5.942-2.037-8.87-3.166a78.046,78.046,0,0,0-30.151-5.6,56.53,56.53,0,0,0-24.965,6.345,75.107,75.107,0,0,0-18.718,13.905c-2.758,2.76-5.426,5.611-8.2,8.359a29.741,29.741,0,0,1-3.934,3.387c-2.789,1.931-4.623,1.409-5.844-1.7a42.507,42.507,0,0,1-1.562-5.626c-1.491-6.209-2.576-12.545-4.517-18.608a94.864,94.864,0,0,0-6.913-16.435c-4.8-8.8-4.283-16.9,1.415-24.982,2.806-3.982,5.347-8.157,7.88-12.322a32.113,32.113,0,0,0,4.354-10.79,14.918,14.918,0,0,0-4.072-13.75,25.994,25.994,0,0,0-9.706-6.387c-4.955-1.876-10.033-3.429-15.053-5.135-2.561-.871-5.144-1.692-7.656-2.688a5.787,5.787,0,0,1-3.883-4.078,8.293,8.293,0,0,0-3.354-4.626c-1.388-1.124-2.655-2.4-3.976-3.6Z" transform="translate(-1006.767)" fill="#49184c"/>
    <path id="Caminho_21" data-name="Caminho 21" d="M2255.106,2a29.946,29.946,0,0,0,3.034,2.218c9.92,5.549,19.93,10.94,29.769,16.628a86.136,86.136,0,0,1,10.567,7.533,28.089,28.089,0,0,1,5.035,5.464,7.379,7.379,0,0,1-.105,9.36c-1.483,1.994-3.233,3.786-4.8,5.72a61.278,61.278,0,0,0-4.948,6.419c-5.156,8.457-3.376,17.6,4.5,23.658a29.877,29.877,0,0,0,17.839,6.173c22.742.537,41.345-7.822,54.1-27a77.744,77.744,0,0,1,23.961-23.358q12.947-8.09,25.51-16.789a40.15,40.15,0,0,1,25.423-7.195,182.589,182.589,0,0,1,44.747,7.329c.724.214,1.426.5,2.138.751v5.854a139.8,139.8,0,0,0-29.951-7.13c-4.608-.611-9.264-.985-13.909-1.152a29.746,29.746,0,0,0-16.781,4.281c-11.777,7.166-23.09,15.017-33.02,24.626a86.711,86.711,0,0,0-10.035,11.91c-13.561,18.96-32.273,29.778-54.632,34.755-10.362,2.306-20.836,2.688-31.195-.322a36.661,36.661,0,0,1-16.4-9.528c-8.266-8.477-10.972-18.446-7.745-29.881a91.316,91.316,0,0,1,3.322-9.505c2.973-7.322,1.475-13.667-4.235-18.9a106.865,106.865,0,0,0-11.593-9.393c-5.259-3.613-10.855-6.733-16.285-10.1C2248.23,3.691,2247.136,2.812,2246,2Z" transform="translate(-1514.199)" fill="#49184c"/>
    <path id="Caminho_22" data-name="Caminho 22" d="M42.978,2c-.764,1.009-.233,1.634.7,1.97,1.93.7,3.866,1.407,5.848,1.929,11.32,2.981,22.629,6.086,32.93,11.787,7.853,4.347,15.477,9.124,23.07,13.922,9.427,5.957,18.628,12.273,28.093,18.167a114.465,114.465,0,0,0,21.316,10.295c11.074,4.044,22.051,4.034,32.96-.465,7.506-3.1,14.975-6.28,22.438-9.478,18.564-7.954,37.92-13.5,57.348-18.806,23.71-6.477,47.728-11.662,71.721-16.954,2.321-.512,4.626-1.137,6.885-1.873a20.068,20.068,0,0,0,3.22-1.784c-3.1-4.232-7.813-5.648-11.223-8.711H363c.837.66,1.638,1.372,2.518,1.97,2.51,1.7,5.095,3.3,7.559,5.068a20.486,20.486,0,0,1,2.62,2.9,46.543,46.543,0,0,1-5.555,2.288C364.587,15.669,359,17,353.409,18.278c-28.286,6.484-56.6,12.851-84.53,20.781-19.293,5.478-38.4,11.457-56.508,20.255-7.306,3.55-14.637,7.059-22.06,10.355-12.419,5.516-24.917,5.119-37.147-.5a117.9,117.9,0,0,1-15.892-8.8c-7.578-5.028-14.8-10.59-22.2-15.891-9.245-6.625-18.2-13.718-27.836-19.72C63.593,10.02,37.844,5,10.3,9.708c-2.764.472-5.531.932-8.3,1.4V8.5a15.6,15.6,0,0,0,2.535-.189q6.26-1.48,12.492-3.08c1.657-.427,3.29-.963,4.906-1.528.744-.26,1.325-.76.881-1.708Z" fill="#49184c"/>
    <path id="Caminho_23" data-name="Caminho 23" d="M2,139.92a15.763,15.763,0,0,0,2.535-.382,62.412,62.412,0,0,1,31.134-1.677c10,1.9,20.075,3.382,30.075,5.272a82.905,82.905,0,0,1,27.441,10.6c4.363,2.623,8.735,5.237,13.182,7.712a36.32,36.32,0,0,0,6.519,2.89c4.654,1.491,6.7-.333,5.926-5.1a25.766,25.766,0,0,0-1.042-4.422c-7.573-21.423-17.59-41.5-33.119-58.376C74.951,85.9,63.263,78.559,48.982,75.816a82.217,82.217,0,0,0-26.523-.584C15.6,76.148,8.817,77.577,2,78.778V74.225C5.961,73.681,9.917,73.1,13.885,72.6c10.682-1.326,21.38-1.727,32.062-.077,15.21,2.35,27.926,9.546,38.821,20.213,10.078,9.868,17.978,21.364,24.883,33.571a496.617,496.617,0,0,1,21.826,44.636,30.09,30.09,0,0,1,2,6.158c.5,2.482-.565,3.551-3.074,3.062a23.937,23.937,0,0,1-6.134-2.04c-4.348-2.19-8.6-4.586-12.835-6.986q-3.673-2.08-7.19-4.434c-12.343-8.246-25.932-13.286-40.422-16.27q-13.982-2.879-27.775-6.659c-10.38-2.831-20.523-2.764-30.617,1.034-1.106.416-2.282.647-3.426.964Z" transform="translate(0 -46.857)" fill="#49184c"/>
    <path id="Caminho_24" data-name="Caminho 24" d="M412.906,2c.936.514,1.9.986,2.8,1.552.879.55,1.7,1.194,2.488,1.757-.672,2.154-2.345,2.648-3.828,3.12-4.738,1.508-9.525,2.864-14.3,4.248q-20.254,5.87-40.513,11.722a109.615,109.615,0,0,1-19.97,4.217,58.716,58.716,0,0,1-30.109-4.952c-11.534-5.186-22.809-10.954-34.143-16.576-1.974-.979-4.229-2.1-3.572-5.088h14.31a2.335,2.335,0,0,0,.835,3.377,18.9,18.9,0,0,0,3.564,2.232c7.149,3.059,14.241,6.29,21.538,8.956a55.738,55.738,0,0,0,24.954,2.848c13.022-1.321,25.33-5.4,37.422-10.2a10.421,10.421,0,0,0,2.237-1.3,1.77,1.77,0,0,0,.255-3.011c-.973-.994-1.994-1.94-2.994-2.907Z" transform="translate(-181.948)" fill="#49184c"/>
    <path id="Caminho_25" data-name="Caminho 25" d="M2469.2,2c-6.1,3.69-12.189,7.407-18.311,11.064-10.98,6.559-22.951,9.954-35.621,11.2-14.728,1.446-28.873-1.434-42.845-5.6a366.928,366.928,0,0,1-40.069-15.077A14.96,14.96,0,0,1,2330,2h16.912a17.451,17.451,0,0,0,2.965,1.649c12.365,4.048,24.938,7.255,37.917,8.495,12.832,1.224,25.528.461,37.844-3.709A43.209,43.209,0,0,0,2438.625,2Z" transform="translate(-1570.88)" fill="#49184c"/>
    <path id="Caminho_26" data-name="Caminho 26" d="M223.023,2a3.408,3.408,0,0,0,1.8,3.817c1.192.743,2.411,1.45,3.655,2.1,11.113,5.829,22.205,11.7,33.367,17.433,4.614,2.37,9.326,4.567,14.088,6.627a64.241,64.241,0,0,0,45.035,2.782c9.644-2.859,19.185-6.1,28.908-8.645,21.446-5.618,42.978-10.906,64.475-16.331C416.24,9.31,418.152,8.9,420,8.3a27.838,27.838,0,0,0,3.407-1.615c-.669-2.762-3.387-2.967-4.6-4.69h17.562c1.292.963,2.618,1.883,3.864,2.9.951.777,1.8,1.677,2.765,2.586a7.265,7.265,0,0,1-4.528,2.407c-9.48,2.24-18.987,4.368-28.442,6.7-26.909,6.643-53.7,13.7-79.919,22.776-9.157,3.168-18.561,5.2-28.381,4.232a70.687,70.687,0,0,1-23.075-6.316c-7.836-3.661-15.54-7.646-23.089-11.869-10.965-6.134-21.9-12.3-33.381-17.438a47.646,47.646,0,0,1-4.573-2.457A3.188,3.188,0,0,1,215.868,2Z" transform="translate(-144.27)" fill="#49184c"/>
    <path id="Caminho_27" data-name="Caminho 27" d="M1842,1982.57c3.994-.84,7.957-1.9,11.989-2.48,15.414-2.2,30.831-4.39,46.284-6.29a104.4,104.4,0,0,1,24.936.359,428.5,428.5,0,0,1,46.37,7.755,15.5,15.5,0,0,1,1.812.656Z" transform="translate(-1241.589 -1330.124)" fill="#49184c"/>
    <path id="Caminho_28" data-name="Caminho 28" d="M406.979,2c.746.775,1.525,1.521,2.232,2.33,1.364,1.558,1.283,2.551-.471,3.715a17.593,17.593,0,0,1-3.483,1.724c-19.44,7.382-38.416,5.939-56.976-3.067a18.208,18.208,0,0,1-2.216-1.349A2.306,2.306,0,0,1,345.187,2h10.407a2.845,2.845,0,0,0,1.853,3.592c.593.258,1.166.565,1.77.789a55.129,55.129,0,0,0,27.33,3.008,29.3,29.3,0,0,0,6.534-1.708c2.665-1.05,2.786-2.231.819-4.251-.438-.45-.823-.952-1.232-1.43Z" transform="translate(-231.31)" fill="#49184c"/>
    <path id="Caminho_29" data-name="Caminho 29" d="M2958.814,6.553c-6.363-1.255-12.728-2.5-19.084-3.784A8.594,8.594,0,0,1,2938,2h20.814Z" transform="translate(-1981.145)" fill="#49184c"/>
    <path id="Caminho_30" data-name="Caminho 30" d="M760.475,520.943a23.9,23.9,0,0,1-3.132,1.337,66.616,66.616,0,0,1-17.072,1.909,148.024,148.024,0,0,1-63.738-13.266c-10.534-4.832-21.034-9.738-31.574-14.558-10.784-4.931-21.9-8.836-33.732-10.325-3.865-.486-7.766-.775-11.659-.922a42.828,42.828,0,0,1-19.761-5.773c-9.479-5.369-17.992-12.072-26.142-19.231a109.021,109.021,0,0,1-9.611-9.67,27.384,27.384,0,0,1-4.144-6.558c-2.072-4.441-1.516-8.79,1.871-12.362a51.033,51.033,0,0,1,7.857-6.751c7.341-5.1,15.667-7.829,24.426-9.2,7.283-1.142,14.594-1.852,22-.933a22.459,22.459,0,0,1,15.755,8.722,107.367,107.367,0,0,1,6.7,9.967c4.531,7.521,8.908,15.148,14.592,21.883,24.527,29.064,54.857,48.812,92.249,57.056,10.149,2.238,20.383,4.088,30.567,6.172a43.672,43.672,0,0,1,4.5,1.421Q760.453,520.4,760.475,520.943ZM660.266,492.792l.463-.875a22.214,22.214,0,0,0-1.948-2.829c-2.366-2.53-4.75-5.052-7.259-7.437-13.809-13.124-26.029-27.518-35.714-44A84.139,84.139,0,0,0,609.5,428.6a23.184,23.184,0,0,0-15.546-9.182,56.427,56.427,0,0,0-35.424,6.64,33.938,33.938,0,0,0-8.088,6.411c-4.159,4.4-4.537,9.068-1.411,14.281a34.755,34.755,0,0,0,5.168,6.635,103.193,103.193,0,0,0,27.113,19.353,45.736,45.736,0,0,0,18.432,4.647,126.352,126.352,0,0,1,14.2,1.509c11.166,1.836,21.771,5.605,32.249,9.777,3.514,1.4,7.114,2.595,10.715,3.76A16.031,16.031,0,0,0,660.266,492.792Z" transform="translate(-362.15 -278.155)" fill="#49184c"/>
    <path id="Caminho_31" data-name="Caminho 31" d="M2110.169,67.389c-.249,2.147-.618,5.7-1.1,9.235a12.825,12.825,0,0,1-.91,3.111c-1.572,3.817-4.267,5.053-8.09,3.5a23.37,23.37,0,0,1-5.346-3.033A68.186,68.186,0,0,1,2074.8,56.122a24.229,24.229,0,0,1-2.882-11.225,11.759,11.759,0,0,1,8.064-11.413,18.122,18.122,0,0,1,13.626.513c6.6,2.684,10.944,7.577,13.582,14.11C2109.507,53.845,2109.911,59.887,2110.169,67.389Zm-15.069-12c-.381-4.1-1.723-7.646-5.613-9.6-3.565-1.789-6.762.265-6.446,4.208a11.748,11.748,0,0,0,6.587,9.747c2.447,1.31,4.429.257,5.158-2.46A18.571,18.571,0,0,0,2095.1,55.387Z" transform="translate(-1396.73 -20.504)" fill="#49184c"/>
    <path id="Caminho_32" data-name="Caminho 32" d="M29.423,135.688c-4.653,0-9.306.036-13.957-.022a18.412,18.412,0,0,1-4.173-.482c-2.87-.711-3.485-2.268-1.778-4.758a18.16,18.16,0,0,1,3.517-3.781A51.213,51.213,0,0,1,37.486,116.1c10.254-1.682,20.072-.532,29.172,4.786a39.416,39.416,0,0,1,14.627,14.44,17.529,17.529,0,0,1,2,5.414c.408,2.181-.544,3.124-2.722,2.855a31.627,31.627,0,0,1-5.324-1.362c-5.577-1.716-11.067-3.773-16.723-5.158-7.934-1.943-16.092-1.933-24.223-1.826-1.624.021-3.249,0-4.873,0Q29.423,135.471,29.423,135.688Z" transform="translate(-4.433 -76.509)" fill="#49184c"/>
    <path id="Caminho_33" data-name="Caminho 33" d="M2087.658,1153.878c-.188,16.174-5.82,29.894-18.969,39.792-10.608,7.986-22.59,10.913-35.59,7.321-11.167-3.086-18.854-10.011-21.252-21.76-1.222-5.99-.253-11.855,1.963-17.523a52.965,52.965,0,0,1,11.121-17.037,96.41,96.41,0,0,1,28.676-21,48.064,48.064,0,0,1,9.767-3.451c7.67-1.789,13.323.62,17.539,7.263,4.408,6.946,6.151,14.725,6.733,22.819C2087.732,1151.492,2087.658,1152.688,2087.658,1153.878Zm-44.68,38.344c13.781.035,25.188-8.492,28.38-20.352a26.732,26.732,0,0,0,.838-9.295c-.972-10.14-8.319-15.656-18.38-13.827a36.586,36.586,0,0,0-24.225,15.592,24.248,24.248,0,0,0-3.407,7.655c-1.873,7.234,1.251,13.976,7.783,17.624A20.124,20.124,0,0,0,2042.978,1192.222Z" transform="translate(-1355.838 -754.166)" fill="#49184c"/>
    <path id="Caminho_34" data-name="Caminho 34" d="M1009.955,211c4.359.308,8.461.586,12.56.9a10.033,10.033,0,0,1,1.906.386c4.21,1.173,5.412,3.23,4.3,7.514-.433,1.675-1.079,3.294-1.562,4.958-1.589,5.479-.373,8.741,4.777,11.242a74.863,74.863,0,0,0,10.635,3.935c5.273,1.63,10.652,2.917,15.924,4.552a52.844,52.844,0,0,1,8.115,3.284c9.334,4.711,14.07,12.519,14.866,22.815.755,9.758-1.545,18.933-5.588,27.723-6.545,14.23-16.7,25.474-29.141,34.756a118.581,118.581,0,0,1-57.3,22.779,146.668,146.668,0,0,1-76.3-10.683c-16.021-6.763-29.834-16.7-40.482-30.672a61.492,61.492,0,0,1-8.136-14.015c-4.268-10.444-4.378-20.879.211-31.246,1.49-3.365,3.131-6.669,4.836-9.931,2.723-5.209,3.759-10.533,1.923-16.3-1.6-5.03.136-9.081,4.523-11.714a71.66,71.66,0,0,1,11.308-5.618c10.68-4.059,21.855-6.207,33.132-7.812,14.7-2.093,29.489-3.265,44.3-4.155C979.906,212.789,995.043,211.893,1009.955,211ZM974.1,354.46c4.1-.419,11.358-.848,18.51-1.946a113.577,113.577,0,0,0,54.743-23.917c11.595-9.3,20.956-20.38,26.439-34.4,2.632-6.728,4.181-13.672,3.651-20.952-.741-10.179-5.587-17.592-15-21.8a35.8,35.8,0,0,0-6.7-2.437c-7.286-1.624-14.626-3.007-21.932-4.54-6.882-1.444-13.793-2.787-20.608-4.5a21.034,21.034,0,0,1-12.94-9.209,12.906,12.906,0,0,0-8.646-5.883,85.494,85.494,0,0,0-12.528-1.69,237.3,237.3,0,0,0-50.784,3.832,84.031,84.031,0,0,0-18.436,5.128c-4.356,1.865-8.407,4.268-10.959,8.355-4.367,6.99-10.106,12.677-16.157,18.145a64.364,64.364,0,0,0-11.218,12.594,30.325,30.325,0,0,0-4.259,24.85c2.031,8.067,6.171,14.991,11.45,21.277a90.383,90.383,0,0,0,29.421,22.66C927.9,349.869,949,353.993,974.1,354.46Z" transform="translate(-579.848 -141.031)" fill="#49184c"/>
    <path id="Caminho_35" data-name="Caminho 35" d="M643.417,489.369c-15.508,1.674-27.151-4.056-37.607-12.8a30.2,30.2,0,0,1-6.013-7.155c-2.373-3.8-1.891-7.747,1.075-11.11a21.422,21.422,0,0,1,5.162-4.383,35.681,35.681,0,0,1,24.041-4.729,23.5,23.5,0,0,1,14.973,8.992,87.354,87.354,0,0,1,12.591,22.258c.121.3.237.606.328.917,1.412,4.843.175,6.784-4.881,7.66a14.553,14.553,0,0,1-2.247.334C647.917,489.392,644.993,489.369,643.417,489.369ZM627.9,475.063c2.789-.228,5.509-.731,6.875-3.529,1.338-2.741.4-5.289-1.258-7.6a12.3,12.3,0,0,0-15.407-3.716c-4.206,2.16-4.983,6.121-1.767,9.606A16.89,16.89,0,0,0,627.9,475.063Z" transform="translate(-402.362 -301.451)" fill="#49184c"/>
    <path id="Caminho_36" data-name="Caminho 36" d="M1013.712,333.3c14.494.762,29,1.393,43.479,2.339,7.77.508,15.556,1.305,23.031,3.712a44.6,44.6,0,0,1,7.767,3.243c7.038,3.86,10.609,9.991,11.014,17.957.414,8.162-2.1,15.606-5.923,22.654-5.409,9.978-13.009,18.083-21.932,24.978a109.7,109.7,0,0,1-51.163,21.734,133.167,133.167,0,0,1-75.245-9.95c-11.241-4.929-21.2-11.784-29.168-21.257-4.375-5.2-7.738-10.95-9.181-17.7a23.521,23.521,0,0,1,5.228-20.947,42.439,42.439,0,0,1,12.1-9.709c9.808-5.516,20.41-8.911,31.261-11.626,17.792-4.452,35.9-5.633,54.165-5.262,1.516.031,3.034,0,4.551,0C1013.7,333.421,1013.708,333.363,1013.712,333.3Zm9.826,3.974-24.388.687a225.946,225.946,0,0,0-43.461,5.346c-9.745,2.2-19.27,5.073-28.16,9.751a42.926,42.926,0,0,0-11.485,8.415c-6.392,6.786-7.988,14.671-5.234,23.469,1.986,6.344,5.765,11.611,10.327,16.34a76.873,76.873,0,0,0,24.222,16.678c23.341,10.461,47.73,13.619,73.005,9.994a107.185,107.185,0,0,0,46.749-18.332c9.521-6.643,17.727-14.589,23.751-24.615a43.815,43.815,0,0,0,6.605-18.846c.767-8.836-2.131-16.046-10-20.656a41.929,41.929,0,0,0-8.344-3.533,74.844,74.844,0,0,0-18.859-3.114C1045.942,338.169,1033.6,337.725,1023.538,337.279Z" transform="translate(-609.851 -223.557)" fill="#49184c"/>
    <path id="Caminho_37" data-name="Caminho 37" d="M1051.5,361.5c8.4.436,18.467.854,28.513,1.522a58.04,58.04,0,0,1,15.869,3.216c12.393,4.462,17.186,13.772,13.63,26.469-2.465,8.8-7.537,16.032-13.825,22.45-12.689,12.951-28.15,21.1-45.536,25.76a112.246,112.246,0,0,1-31.823,3.838c-18.627-.446-36.531-4.166-53.2-12.821-7.76-4.028-14.778-9.044-20.365-15.874a33.25,33.25,0,0,1-5.993-10.346c-2.633-7.765-1.305-14.724,4.248-20.809A40.433,40.433,0,0,1,956,375.861c8.58-4.049,17.674-6.458,26.927-8.325a258.188,258.188,0,0,1,38.653-4.706C1030.993,362.375,1040.408,361.989,1051.5,361.5Zm-3.523,6.384c-4.589.194-11.949.475-19.306.825a275.618,275.618,0,0,0-40.286,4.746c-8.726,1.72-17.308,3.972-25.4,7.775a38.712,38.712,0,0,0-10.544,6.937c-6.287,6.034-7.542,13.593-3.549,21.333a33.789,33.789,0,0,0,7.153,9.19,66.638,66.638,0,0,0,21.85,13.188,113.208,113.208,0,0,0,49.377,7.353,103.026,103.026,0,0,0,43.336-12.476c9.29-5.154,17.505-11.616,23.872-20.229a36.258,36.258,0,0,0,6.743-14.283c1.594-7.762-1.163-14.4-8.155-18.12a44.736,44.736,0,0,0-10.938-3.929C1071.809,367.831,1061.262,368,1047.976,367.882Z" transform="translate(-631.231 -242.581)" fill="#49184c"/>
    <path id="Caminho_38" data-name="Caminho 38" d="M1075.861,390.917c9.181.545,18.379.909,27.536,1.722,3.84.341,7.618,1.547,11.377,2.535a19.581,19.581,0,0,1,4.446,1.955c6.857,3.824,9.414,9.989,7.4,17.609a31.805,31.805,0,0,1-5.141,10.434c-5.212,7.259-11.977,12.792-19.592,17.315a94.811,94.811,0,0,1-38.582,12.669,107.3,107.3,0,0,1-48.329-5.316,67.892,67.892,0,0,1-18.613-9.8,34.371,34.371,0,0,1-8.839-9.433c-4.428-7.319-3.48-14.4,2.723-20.28a39.356,39.356,0,0,1,12.136-7.412c9.25-3.888,18.983-5.994,28.824-7.6C1045.98,392.9,1060.888,391.9,1075.861,390.917Zm-25.249,61.925c4.314-.335,8.645-.526,12.939-1.033a88.929,88.929,0,0,0,35.459-11.855,58.463,58.463,0,0,0,16.044-13.565,28.66,28.66,0,0,0,5.739-10.824c1.589-6.243-.35-11.541-5.861-14.82a36.752,36.752,0,0,0-8.337-3.5A72.365,72.365,0,0,0,1087,394.7c-7.574-.105-15.159.1-22.73.387a231.714,231.714,0,0,0-38.636,4.691,91.145,91.145,0,0,0-21.584,6.932,29.267,29.267,0,0,0-9.912,7.208c-3.814,4.539-4.352,9.518-1.809,14.834a20.823,20.823,0,0,0,6.506,8,81.147,81.147,0,0,0,11.461,7.308C1022.971,450.3,1036.557,452.621,1050.612,452.842Z" transform="translate(-663.159 -262.432)" fill="#49184c"/>
    <path id="Caminho_39" data-name="Caminho 39" d="M1131.146,437.425c5.575-.069,11.444.057,17.139,1.569a29.107,29.107,0,0,1,7.475,3.027c4.153,2.5,5.034,6.33,2.868,10.66a20.8,20.8,0,0,1-6.166,7.029,53.731,53.731,0,0,1-20.2,9.36,70.818,70.818,0,0,1-37.244-.27,33.357,33.357,0,0,1-11.388-5.4c-6.753-5.177-6.629-11.3.4-16.059,5.765-3.9,12.371-5.678,19.07-7.085A131.593,131.593,0,0,1,1131.146,437.425Zm-6.492,6.824c-6.369.377-12.6,1.088-18.581,3.136a29.161,29.161,0,0,0-7.487,3.724c-3.342,2.4-3.29,5.739.155,7.941a24.186,24.186,0,0,0,7.716,3.168,43.264,43.264,0,0,0,24.266-1.72,33.978,33.978,0,0,0,6.908-3.507c2.28-1.481,4.552-3.372,3.967-6.516-.556-2.984-3.221-4-5.773-4.532C1132.143,445.177,1128.381,444.8,1124.654,444.249Z" transform="translate(-726.508 -293.805)" fill="#49184c"/>
  </g>
</svg>
